<svg id="svg" version="1.1" xmlns="http://www.w3.org/2000/svg" xmlns:xlink="http://www.w3.org/1999/xlink" width="400" height="416.18497109826586" viewBox="0, 0, 400,416.18497109826586"><g id="svgg"><path id="path0" d="M201.299 96.500 L 201.400 188.200 286.200 188.200 L 371.000 188.200 371.138 187.200 C 371.215 186.650,371.530 186.056,371.838 185.880 C 372.147 185.704,372.400 184.961,372.400 184.229 C 372.400 183.497,372.670 182.674,373.000 182.400 C 373.383 182.082,373.600 181.197,373.600 179.951 C 373.600 178.878,373.780 178.000,374.000 178.000 C 374.220 178.000,374.400 177.544,374.400 176.987 C 374.400 176.431,374.670 175.871,375.000 175.745 C 375.445 175.574,375.600 174.867,375.600 173.006 C 375.600 171.265,375.783 170.346,376.200 170.000 C 376.530 169.726,376.800 169.186,376.800 168.800 C 376.800 168.414,377.070 167.874,377.400 167.600 C 377.839 167.236,378.000 166.269,378.000 163.994 C 378.000 161.600,378.138 160.833,378.600 160.655 C 379.019 160.495,379.200 159.841,379.200 158.487 C 379.200 156.857,379.390 156.368,380.400 155.400 C 381.530 154.317,381.600 154.071,381.600 151.168 C 381.600 148.797,381.738 148.032,382.200 147.855 C 382.621 147.694,382.800 147.038,382.800 145.662 C 382.800 144.404,383.016 143.519,383.400 143.200 C 383.855 142.822,384.000 141.797,384.000 138.951 C 384.000 136.717,384.162 135.200,384.400 135.200 C 384.620 135.200,384.800 134.592,384.800 133.849 C 384.800 133.106,385.070 132.274,385.400 132.000 C 385.866 131.613,386.000 130.529,386.000 127.138 C 386.000 123.629,386.117 122.730,386.600 122.545 C 387.045 122.374,387.200 121.667,387.200 119.806 C 387.200 118.065,387.383 117.146,387.800 116.800 C 388.254 116.423,388.400 115.402,388.400 112.594 C 388.400 109.667,388.526 108.837,389.000 108.655 C 389.475 108.473,389.600 107.631,389.600 104.600 C 389.600 101.569,389.725 100.727,390.200 100.545 C 390.705 100.351,390.800 99.066,390.800 92.400 C 390.800 85.706,390.893 84.450,391.405 84.254 C 391.932 84.051,391.996 82.070,391.905 68.711 L 391.800 53.400 386.809 53.287 C 382.923 53.199,381.744 53.044,381.489 52.587 C 381.225 52.115,380.074 52.000,375.623 52.000 C 371.070 52.000,370.045 51.893,369.855 51.400 C 369.671 50.919,368.785 50.800,365.384 50.800 C 362.147 50.800,361.001 50.658,360.543 50.200 C 360.077 49.734,358.879 49.600,355.171 49.600 C 352.257 49.600,350.400 49.444,350.400 49.200 C 350.400 48.980,349.429 48.800,348.243 48.800 C 346.694 48.800,346.021 48.631,345.855 48.200 C 345.678 47.737,344.905 47.600,342.462 47.600 C 340.137 47.600,339.166 47.441,338.800 47.000 C 338.441 46.568,337.492 46.400,335.400 46.400 C 333.308 46.400,332.359 46.232,332.000 45.800 C 331.726 45.470,330.916 45.200,330.200 45.200 C 329.484 45.200,328.674 44.930,328.400 44.600 C 328.034 44.159,327.063 44.000,324.738 44.000 C 322.295 44.000,321.522 43.863,321.345 43.400 C 321.196 43.013,320.577 42.800,319.600 42.800 C 318.623 42.800,318.004 42.587,317.855 42.200 C 317.673 41.725,316.831 41.600,313.800 41.600 C 310.769 41.600,309.927 41.475,309.745 41.000 C 309.580 40.571,308.910 40.400,307.400 40.400 C 305.890 40.400,305.220 40.229,305.055 39.800 C 304.929 39.470,304.470 39.200,304.036 39.200 C 303.602 39.200,303.136 39.020,303.000 38.800 C 302.864 38.580,301.615 38.400,300.225 38.400 C 298.467 38.400,297.546 38.217,297.200 37.800 C 296.881 37.416,295.996 37.200,294.738 37.200 C 293.362 37.200,292.706 37.021,292.545 36.600 C 292.385 36.183,291.733 36.000,290.406 36.000 C 289.198 36.000,288.315 35.780,288.000 35.400 C 287.726 35.070,287.186 34.800,286.800 34.800 C 286.414 34.800,285.874 34.530,285.600 34.200 C 285.326 33.870,284.516 33.600,283.800 33.600 C 283.084 33.600,282.274 33.330,282.000 33.000 C 281.654 32.583,280.735 32.400,278.994 32.400 C 277.133 32.400,276.426 32.245,276.255 31.800 C 276.113 31.429,275.505 31.200,274.662 31.200 C 273.912 31.200,273.074 30.930,272.800 30.600 C 272.526 30.270,271.716 30.000,271.000 30.000 C 270.284 30.000,269.474 29.730,269.200 29.400 C 268.882 29.017,267.997 28.800,266.751 28.800 C 265.678 28.800,264.800 28.620,264.800 28.400 C 264.800 28.180,264.099 28.000,263.243 28.000 C 262.228 28.000,261.605 27.791,261.455 27.400 C 261.313 27.029,260.705 26.800,259.862 26.800 C 259.112 26.800,258.274 26.530,258.000 26.200 C 257.726 25.870,257.186 25.600,256.800 25.600 C 256.414 25.600,255.874 25.330,255.600 25.000 C 255.326 24.670,254.488 24.400,253.738 24.400 C 252.895 24.400,252.287 24.171,252.145 23.800 C 251.994 23.408,251.371 23.200,250.345 23.200 C 249.318 23.200,248.695 22.992,248.545 22.600 C 248.380 22.171,247.710 22.000,246.200 22.000 C 244.690 22.000,244.020 21.829,243.855 21.400 C 243.729 21.070,243.281 20.800,242.862 20.800 C 242.442 20.800,241.874 20.530,241.600 20.200 C 241.326 19.870,240.516 19.600,239.800 19.600 C 239.084 19.600,238.274 19.330,238.000 19.000 C 237.726 18.670,236.894 18.400,236.151 18.400 C 235.408 18.400,234.800 18.220,234.800 18.000 C 234.800 17.780,234.074 17.600,233.187 17.600 C 232.123 17.600,231.497 17.396,231.345 17.000 C 231.218 16.670,230.787 16.400,230.386 16.400 C 229.985 16.400,229.387 16.130,229.057 15.800 C 228.727 15.470,228.196 15.200,227.878 15.200 C 227.559 15.200,227.074 14.930,226.800 14.600 C 226.485 14.221,225.603 14.000,224.400 14.000 C 223.197 14.000,222.315 13.779,222.000 13.400 C 221.726 13.070,221.186 12.800,220.800 12.800 C 220.414 12.800,219.874 12.530,219.600 12.200 C 219.326 11.870,218.488 11.600,217.738 11.600 C 216.895 11.600,216.287 11.371,216.145 11.000 C 216.018 10.670,215.503 10.400,215.000 10.400 C 214.497 10.400,213.982 10.130,213.855 9.800 C 213.729 9.470,213.189 9.200,212.655 9.200 C 212.122 9.200,211.582 8.930,211.455 8.600 C 211.312 8.226,210.702 8.000,209.836 8.000 C 209.072 8.000,208.336 7.820,208.200 7.600 C 208.064 7.380,207.625 7.200,207.225 7.200 C 206.825 7.200,206.274 6.930,206.000 6.600 C 205.726 6.270,204.916 6.000,204.200 6.000 C 203.484 6.000,202.674 5.730,202.400 5.400 C 202.126 5.070,201.744 4.800,201.550 4.800 C 201.348 4.800,201.241 43.917,201.299 96.500 M201.462 193.100 C 201.360 193.265,238.952 193.400,285.000 193.400 C 331.048 193.400,368.640 193.265,368.538 193.100 C 368.296 192.708,201.704 192.708,201.462 193.100 M364.267 203.467 C 364.120 203.613,364.000 204.581,364.000 205.618 C 364.000 206.805,363.778 207.686,363.400 208.000 C 363.070 208.274,362.800 208.814,362.800 209.200 C 362.800 209.586,362.548 210.111,362.241 210.366 C 361.666 210.843,361.140 214.084,361.693 213.743 C 361.862 213.638,362.000 212.955,362.000 212.225 C 362.000 211.495,362.270 210.674,362.600 210.400 C 362.930 210.126,363.200 209.586,363.200 209.200 C 363.200 208.814,363.454 208.287,363.764 208.030 C 364.167 207.696,364.915 203.194,364.567 203.199 C 364.548 203.200,364.413 203.320,364.267 203.467 M356.267 224.267 C 356.120 224.413,356.000 224.841,356.000 225.218 C 356.000 225.594,355.748 226.111,355.441 226.366 C 354.866 226.843,354.340 230.084,354.893 229.743 C 355.062 229.638,355.200 228.955,355.200 228.225 C 355.200 227.495,355.450 226.690,355.756 226.437 C 356.061 226.183,356.396 225.531,356.500 224.988 C 356.703 223.928,356.679 223.854,356.267 224.267 M345.867 245.067 C 345.720 245.213,345.600 245.911,345.600 246.618 C 345.600 247.324,345.350 248.110,345.044 248.363 C 344.442 248.863,343.896 250.912,344.458 250.564 C 344.646 250.448,344.800 250.025,344.800 249.625 C 344.800 249.225,345.052 248.689,345.359 248.434 C 345.767 248.096,346.508 244.800,346.177 244.800 C 346.153 244.800,346.013 244.920,345.867 245.067 M340.901 256.200 C 340.905 257.080,340.987 257.393,341.083 256.895 C 341.179 256.398,341.175 255.678,341.075 255.295 C 340.975 254.913,340.896 255.320,340.901 256.200 M335.680 264.480 C 335.416 264.744,335.221 265.329,335.246 265.780 C 335.292 266.583,335.297 266.584,335.489 265.800 C 335.598 265.360,335.869 264.775,336.092 264.500 C 336.610 263.862,336.312 263.848,335.680 264.480 M333.067 268.267 C 332.920 268.413,332.800 268.841,332.800 269.218 C 332.800 269.594,332.548 270.111,332.241 270.366 C 331.666 270.843,331.140 274.084,331.693 273.743 C 331.862 273.638,332.000 272.955,332.000 272.225 C 332.000 271.495,332.250 270.690,332.556 270.437 C 332.861 270.183,333.196 269.531,333.300 268.988 C 333.503 267.928,333.479 267.854,333.067 268.267 M329.800 274.685 C 328.575 274.980,328.198 275.528,329.376 275.303 C 329.946 275.194,330.510 274.946,330.630 274.752 C 330.749 274.559,330.792 274.421,330.724 274.446 C 330.656 274.472,330.240 274.579,329.800 274.685 M315.820 295.978 C 315.433 296.405,314.730 296.810,314.258 296.878 C 313.576 296.975,313.393 297.287,313.364 298.400 C 313.329 299.795,313.329 299.795,313.488 298.500 C 313.601 297.585,313.857 297.200,314.354 297.200 C 314.743 297.200,315.483 296.750,316.000 296.200 C 316.517 295.650,316.846 295.200,316.732 295.200 C 316.617 295.200,316.207 295.550,315.820 295.978 M311.017 300.900 C 310.687 301.946,310.557 303.950,310.830 303.781 C 310.987 303.684,311.184 302.884,311.268 302.003 C 311.421 300.406,311.317 299.950,311.017 300.900 M300.432 316.667 C 300.414 317.143,300.175 317.624,299.900 317.735 C 299.508 317.893,299.511 317.944,299.913 317.968 C 300.520 318.006,300.961 317.040,300.669 316.313 C 300.556 316.031,300.449 316.190,300.432 316.667 M287.750 330.987 C 287.626 331.310,287.617 331.805,287.731 332.087 C 287.844 332.369,287.951 332.208,287.968 331.728 C 287.989 331.155,288.309 330.796,288.900 330.682 L 289.800 330.509 288.887 330.454 C 288.386 330.425,287.874 330.664,287.750 330.987 M282.150 337.787 C 282.026 338.110,282.017 338.605,282.131 338.887 C 282.244 339.169,282.351 339.010,282.368 338.533 C 282.386 338.057,282.625 337.576,282.900 337.465 C 283.292 337.307,283.289 337.256,282.887 337.232 C 282.606 337.214,282.274 337.464,282.150 337.787 M270.550 350.587 C 270.426 350.910,270.417 351.405,270.531 351.687 C 270.644 351.969,270.751 351.808,270.768 351.328 C 270.789 350.755,271.109 350.396,271.700 350.282 L 272.600 350.109 271.687 350.054 C 271.186 350.025,270.674 350.264,270.550 350.587 M268.267 352.667 C 268.120 352.813,268.000 353.228,268.000 353.588 C 268.000 354.405,265.577 356.800,264.751 356.800 C 264.415 356.800,263.703 357.295,263.170 357.900 L 262.200 359.000 263.226 358.100 C 263.790 357.605,264.518 357.200,264.845 357.200 C 265.637 357.200,268.239 354.431,268.510 353.300 C 268.738 352.346,268.696 352.237,268.267 352.667 M261.467 359.467 C 261.320 359.613,261.200 360.004,261.200 360.335 C 261.200 360.666,260.885 361.311,260.500 361.769 C 259.807 362.592,259.808 362.593,260.658 361.876 C 261.130 361.478,261.600 360.713,261.702 360.176 C 261.903 359.128,261.878 359.055,261.467 359.467 M254.550 367.076 C 254.082 367.168,253.272 367.728,252.750 368.321 L 251.800 369.400 252.826 368.500 C 253.390 368.005,254.144 367.600,254.502 367.600 C 254.860 367.600,255.264 367.420,255.400 367.200 C 255.536 366.980,255.592 366.825,255.524 366.854 C 255.456 366.884,255.017 366.984,254.550 367.076 M250.987 370.200 C 250.884 370.530,250.716 371.070,250.613 371.400 C 250.509 371.730,250.070 372.000,249.636 372.000 C 249.202 372.000,248.752 372.154,248.636 372.342 C 248.322 372.850,250.317 372.387,250.730 371.856 C 251.136 371.333,251.613 369.600,251.350 369.600 C 251.254 369.600,251.091 369.870,250.987 370.200 M241.800 378.685 C 240.575 378.980,240.198 379.528,241.376 379.303 C 241.946 379.194,242.510 378.946,242.630 378.752 C 242.749 378.559,242.792 378.421,242.724 378.446 C 242.656 378.472,242.240 378.579,241.800 378.685 M214.200 400.685 C 212.975 400.980,212.598 401.528,213.776 401.303 C 214.346 401.194,214.910 400.946,215.030 400.752 C 215.149 400.559,215.192 400.421,215.124 400.446 C 215.056 400.472,214.640 400.579,214.200 400.685 M211.163 403.088 C 210.073 403.204,209.302 403.693,207.963 405.120 L 206.200 407.000 208.015 405.300 C 209.357 404.043,210.159 403.600,211.092 403.600 C 211.785 403.600,212.464 403.420,212.600 403.200 C 212.736 402.980,212.792 402.830,212.724 402.867 C 212.656 402.904,211.953 403.003,211.163 403.088 M204.070 407.726 C 203.591 408.235,203.200 408.927,203.200 409.264 C 203.200 410.052,201.837 411.294,201.403 410.901 C 201.221 410.735,201.210 410.839,201.378 411.130 C 201.753 411.779,203.600 410.222,203.600 409.256 C 203.600 408.924,203.991 408.235,204.470 407.726 C 204.948 407.217,205.249 406.800,205.139 406.800 C 205.029 406.800,204.548 407.217,204.070 407.726 " stroke="none" fill="#44a42c" fill-rule="evenodd"></path><path id="path1" d="M201.468 193.466 C 201.118 193.816,201.118 410.584,201.468 410.934 C 201.859 411.326,203.200 409.989,203.200 409.208 C 203.200 408.399,204.822 406.800,205.642 406.800 C 205.968 406.800,207.019 405.999,207.980 405.020 C 209.291 403.685,210.081 403.211,211.147 403.120 C 212.288 403.024,212.614 402.802,212.801 402.000 C 212.941 401.393,213.359 400.953,213.861 400.879 C 214.317 400.813,215.198 400.228,215.820 399.579 C 216.441 398.931,217.263 398.400,217.647 398.400 C 218.065 398.400,218.396 398.040,218.472 397.504 C 218.546 396.983,218.935 396.547,219.400 396.463 C 219.840 396.383,220.470 396.085,220.800 395.800 C 221.130 395.515,221.752 395.218,222.182 395.139 C 222.623 395.058,223.067 394.560,223.199 393.998 C 223.342 393.389,223.760 392.952,224.271 392.878 C 224.835 392.796,225.186 392.371,225.344 391.578 C 225.531 390.647,225.792 390.400,226.590 390.400 C 227.145 390.400,227.600 390.223,227.600 390.008 C 227.600 389.792,228.078 389.495,228.662 389.349 C 229.246 389.202,230.968 387.849,232.487 386.341 C 234.007 384.833,235.508 383.600,235.823 383.600 C 236.138 383.600,237.432 382.541,238.698 381.246 C 239.964 379.951,241.360 378.824,241.800 378.742 C 242.247 378.658,242.654 378.217,242.722 377.742 C 242.805 377.164,243.221 376.816,244.022 376.656 C 244.953 376.469,245.200 376.208,245.200 375.410 C 245.200 374.702,245.416 374.400,245.924 374.400 C 246.322 374.400,247.178 373.882,247.826 373.248 C 248.474 372.615,249.355 372.029,249.785 371.946 C 250.214 371.863,250.663 371.431,250.782 370.984 C 251.104 369.786,253.558 367.263,254.540 367.122 C 255.009 367.055,255.455 366.668,255.533 366.262 C 255.731 365.221,256.859 364.000,257.622 364.000 C 258.418 364.000,261.200 361.277,261.200 360.498 C 261.200 359.702,264.028 356.800,264.804 356.800 C 265.623 356.800,267.880 354.447,268.065 353.400 C 268.158 352.876,268.577 352.557,269.279 352.476 C 270.107 352.380,270.380 352.106,270.476 351.276 C 270.573 350.438,270.843 350.172,271.700 350.073 C 272.515 349.980,272.800 349.727,272.800 349.097 C 272.800 348.544,274.402 346.666,277.400 343.707 C 279.930 341.210,282.000 338.877,282.000 338.524 C 282.000 337.628,284.402 335.387,285.713 335.058 C 286.530 334.852,286.800 334.538,286.800 333.792 C 286.800 333.247,286.968 332.800,287.173 332.800 C 287.379 332.800,287.604 332.305,287.673 331.700 C 287.766 330.900,288.054 330.564,288.732 330.468 C 289.837 330.311,291.200 329.052,291.200 328.187 C 291.200 327.849,291.740 327.045,292.400 326.400 C 293.060 325.755,293.600 324.873,293.600 324.440 C 293.600 323.879,293.916 323.617,294.700 323.527 C 295.564 323.427,295.827 323.164,295.927 322.300 C 296.026 321.436,296.262 321.200,297.027 321.200 C 297.686 321.200,298.001 320.974,298.002 320.500 C 298.003 320.115,298.543 319.225,299.202 318.522 C 299.861 317.819,300.400 317.003,300.400 316.709 C 300.400 316.415,301.480 315.106,302.800 313.800 C 304.120 312.494,305.200 311.143,305.200 310.799 C 305.200 310.454,306.190 309.195,307.400 308.000 C 308.610 306.805,309.600 305.528,309.600 305.163 C 309.600 304.797,309.860 304.282,310.178 304.019 C 310.495 303.755,310.810 302.878,310.878 302.070 C 310.983 300.808,311.153 300.582,312.078 300.476 C 313.034 300.365,313.170 300.161,313.278 298.679 C 313.373 297.374,313.576 296.975,314.200 296.864 C 315.243 296.677,316.795 295.233,316.817 294.430 C 316.826 294.084,317.366 293.358,318.017 292.819 C 318.700 292.253,319.200 291.449,319.200 290.919 C 319.200 290.413,319.358 290.000,319.550 290.000 C 319.743 290.000,320.008 289.460,320.140 288.800 C 320.331 287.847,320.588 287.600,321.390 287.600 C 322.189 287.600,322.400 287.400,322.400 286.643 C 322.400 286.116,322.670 285.582,323.000 285.455 C 323.330 285.329,323.600 284.848,323.600 284.387 C 323.600 283.926,324.140 283.094,324.800 282.539 C 325.460 281.983,326.000 281.207,326.000 280.813 C 326.000 280.420,326.270 279.874,326.600 279.600 C 326.930 279.326,327.200 278.786,327.200 278.400 C 327.200 278.014,327.459 277.483,327.776 277.220 C 328.093 276.957,328.408 276.352,328.476 275.875 C 328.547 275.382,328.945 274.946,329.400 274.863 C 330.726 274.622,331.600 273.559,331.600 272.187 C 331.600 271.478,331.870 270.674,332.200 270.400 C 332.530 270.126,332.800 269.601,332.800 269.232 C 332.800 268.864,333.332 268.121,333.983 267.581 C 334.634 267.042,335.174 266.217,335.183 265.749 C 335.192 265.281,335.470 264.674,335.800 264.400 C 336.130 264.126,336.400 263.583,336.400 263.194 C 336.400 262.804,336.670 262.382,337.000 262.255 C 337.330 262.129,337.600 261.659,337.600 261.212 C 337.600 260.765,338.320 259.700,339.200 258.846 C 340.365 257.716,340.800 256.968,340.800 256.096 C 340.800 255.437,341.070 254.674,341.400 254.400 C 341.730 254.126,342.000 253.598,342.000 253.226 C 342.000 252.854,342.540 252.032,343.200 251.400 C 343.860 250.768,344.400 249.946,344.400 249.574 C 344.400 249.202,344.670 248.674,345.000 248.400 C 345.330 248.126,345.605 247.339,345.611 246.651 C 345.619 245.802,346.004 245.026,346.811 244.233 C 347.649 243.411,348.000 242.681,348.000 241.760 C 348.000 240.632,348.150 240.436,349.100 240.327 C 350.117 240.210,350.209 240.049,350.324 238.200 C 350.392 237.100,350.617 236.029,350.824 235.820 C 351.031 235.611,351.200 235.150,351.200 234.795 C 351.200 234.440,351.740 233.632,352.400 233.000 C 353.060 232.368,353.600 231.546,353.600 231.174 C 353.600 230.802,353.870 230.274,354.200 230.000 C 354.530 229.726,354.800 228.916,354.800 228.200 C 354.800 227.484,355.070 226.674,355.400 226.400 C 355.730 226.126,356.000 225.558,356.000 225.138 C 356.000 224.719,356.270 224.271,356.600 224.145 C 356.930 224.018,357.200 223.478,357.200 222.945 C 357.200 222.411,357.470 221.871,357.800 221.745 C 358.130 221.618,358.400 221.103,358.400 220.600 C 358.400 220.097,358.670 219.582,359.000 219.455 C 359.371 219.313,359.600 218.705,359.600 217.862 C 359.600 217.112,359.870 216.274,360.200 216.000 C 360.530 215.726,360.800 215.175,360.800 214.775 C 360.800 214.375,360.980 213.936,361.200 213.800 C 361.420 213.664,361.600 212.955,361.600 212.225 C 361.600 211.495,361.870 210.674,362.200 210.400 C 362.530 210.126,362.800 209.586,362.800 209.200 C 362.800 208.814,363.070 208.274,363.400 208.000 C 363.784 207.681,364.000 206.796,364.000 205.538 C 364.000 204.162,364.179 203.506,364.600 203.345 C 364.930 203.218,365.208 202.729,365.217 202.257 C 365.226 201.786,365.766 200.958,366.417 200.419 C 367.273 199.709,367.600 199.087,367.600 198.168 C 367.600 197.469,367.879 196.666,368.220 196.383 C 368.598 196.070,368.794 195.385,368.720 194.634 L 368.600 193.400 285.168 193.299 C 239.280 193.244,201.615 193.319,201.468 193.466 " stroke="none" fill="#dc8c1c" fill-rule="evenodd"></path><path id="path2" d="M196.262 3.131 C 195.898 3.534,195.600 4.128,195.600 4.451 C 195.600 5.238,194.797 6.000,193.969 6.000 C 193.600 6.000,193.074 6.270,192.800 6.600 C 192.526 6.930,191.964 7.200,191.551 7.200 C 191.138 7.200,190.800 7.380,190.800 7.600 C 190.800 7.820,190.074 8.000,189.187 8.000 C 188.123 8.000,187.497 8.204,187.345 8.600 C 187.205 8.964,186.600 9.200,185.806 9.200 C 185.087 9.200,184.274 9.470,184.000 9.800 C 183.726 10.130,182.928 10.400,182.226 10.400 C 181.330 10.400,180.607 10.758,179.800 11.600 C 179.168 12.260,178.346 12.800,177.974 12.800 C 177.602 12.800,177.074 13.070,176.800 13.400 C 176.485 13.780,175.602 14.000,174.394 14.000 C 173.067 14.000,172.415 14.183,172.255 14.600 C 172.129 14.930,171.589 15.200,171.055 15.200 C 170.522 15.200,169.982 15.470,169.855 15.800 C 169.713 16.171,169.105 16.400,168.262 16.400 C 167.512 16.400,166.674 16.670,166.400 17.000 C 166.126 17.330,165.575 17.600,165.175 17.600 C 164.775 17.600,164.336 17.780,164.200 18.000 C 164.064 18.220,163.085 18.400,162.025 18.400 C 160.800 18.400,159.917 18.619,159.600 19.000 C 159.326 19.330,158.758 19.600,158.338 19.600 C 157.919 19.600,157.471 19.870,157.345 20.200 C 157.218 20.530,156.678 20.800,156.145 20.800 C 155.611 20.800,155.071 21.070,154.945 21.400 C 154.805 21.764,154.200 22.000,153.406 22.000 C 152.687 22.000,151.874 22.270,151.600 22.600 C 151.326 22.930,150.516 23.200,149.800 23.200 C 149.084 23.200,148.274 23.470,148.000 23.800 C 147.726 24.130,146.916 24.400,146.200 24.400 C 145.484 24.400,144.674 24.670,144.400 25.000 C 144.126 25.330,143.371 25.600,142.722 25.600 C 142.074 25.600,141.273 25.870,140.943 26.200 C 140.613 26.530,140.015 26.800,139.614 26.800 C 139.213 26.800,138.782 27.070,138.655 27.400 C 138.484 27.848,137.768 28.000,135.836 28.000 C 134.412 28.000,133.136 28.180,133.000 28.400 C 132.864 28.620,132.155 28.800,131.425 28.800 C 130.695 28.800,129.874 29.070,129.600 29.400 C 129.326 29.730,128.786 30.000,128.400 30.000 C 128.014 30.000,127.474 30.270,127.200 30.600 C 126.885 30.980,126.002 31.200,124.794 31.200 C 123.467 31.200,122.815 31.383,122.655 31.800 C 122.484 32.247,121.771 32.400,119.862 32.400 C 118.071 32.400,117.148 32.581,116.800 33.000 C 116.526 33.330,115.716 33.600,115.000 33.600 C 114.284 33.600,113.474 33.870,113.200 34.200 C 112.926 34.530,112.358 34.800,111.938 34.800 C 111.519 34.800,111.071 35.070,110.945 35.400 C 110.774 35.845,110.067 36.000,108.206 36.000 C 106.465 36.000,105.546 36.183,105.200 36.600 C 104.926 36.930,104.116 37.200,103.400 37.200 C 102.684 37.200,101.874 37.470,101.600 37.800 C 101.253 38.219,100.331 38.400,98.551 38.400 C 97.117 38.400,96.000 38.575,96.000 38.800 C 96.000 39.020,95.274 39.200,94.387 39.200 C 93.323 39.200,92.697 39.404,92.545 39.800 C 92.405 40.164,91.800 40.400,91.006 40.400 C 90.287 40.400,89.474 40.670,89.200 41.000 C 88.817 41.462,87.760 41.600,84.618 41.600 C 80.616 41.600,80.510 41.624,79.367 42.789 C 78.244 43.933,78.063 43.978,74.549 43.989 C 71.802 43.997,70.775 44.149,70.400 44.600 C 70.085 44.980,69.202 45.200,67.994 45.200 C 66.667 45.200,66.015 45.383,65.855 45.800 C 65.678 46.263,64.905 46.400,62.462 46.400 C 60.137 46.400,59.166 46.559,58.800 47.000 C 58.441 47.432,57.492 47.600,55.400 47.600 C 53.308 47.600,52.359 47.768,52.000 48.200 C 51.683 48.581,50.800 48.800,49.575 48.800 C 48.515 48.800,47.536 48.980,47.400 49.200 C 47.264 49.420,45.718 49.600,43.964 49.600 C 41.498 49.600,40.723 49.736,40.545 50.200 C 40.354 50.697,39.266 50.800,34.200 50.800 C 29.134 50.800,28.046 50.903,27.855 51.400 C 27.667 51.892,26.660 52.000,22.262 52.000 C 17.982 52.000,16.797 52.121,16.400 52.600 C 16.013 53.066,14.931 53.200,11.551 53.200 L 7.200 53.200 7.200 68.800 C 7.200 78.933,7.340 84.400,7.600 84.400 C 7.850 84.400,8.000 86.857,8.000 90.971 C 8.000 96.279,8.115 97.658,8.600 98.143 C 8.930 98.473,9.200 99.094,9.200 99.522 C 9.200 99.951,8.930 100.526,8.600 100.800 C 7.826 101.442,7.826 103.358,8.600 104.000 C 9.017 104.346,9.200 105.265,9.200 107.006 C 9.200 108.867,9.355 109.574,9.800 109.745 C 10.670 110.078,10.670 117.278,9.800 118.000 C 9.003 118.662,9.003 121.738,9.800 122.400 C 10.171 122.708,10.404 123.603,10.411 124.749 C 10.420 126.265,10.637 126.811,11.611 127.767 L 12.800 128.933 12.800 134.279 C 12.800 138.662,12.908 139.667,13.400 139.855 C 13.845 140.026,14.000 140.733,14.000 142.594 C 14.000 144.335,14.183 145.254,14.600 145.600 C 14.977 145.913,15.200 146.794,15.200 147.974 C 15.200 149.537,15.401 150.043,16.400 151.000 C 17.261 151.824,17.600 152.525,17.600 153.475 C 17.600 154.204,17.780 154.800,18.000 154.800 C 18.220 154.800,18.400 155.526,18.400 156.413 C 18.400 157.477,18.604 158.103,19.000 158.255 C 19.462 158.433,19.600 159.200,19.600 161.594 C 19.600 163.869,19.761 164.836,20.200 165.200 C 20.639 165.564,20.800 166.531,20.800 168.806 C 20.800 171.200,20.938 171.967,21.400 172.145 C 21.771 172.287,22.000 172.895,22.000 173.738 C 22.000 174.488,22.270 175.326,22.600 175.600 C 22.979 175.915,23.200 176.797,23.200 178.000 C 23.200 179.203,23.421 180.085,23.800 180.400 C 24.130 180.674,24.400 181.512,24.400 182.262 C 24.400 183.105,24.629 183.713,25.000 183.855 C 25.330 183.982,25.600 184.439,25.600 184.871 C 25.600 185.304,25.870 185.927,26.200 186.257 C 26.530 186.587,26.800 187.205,26.800 187.629 C 26.800 188.391,28.050 188.400,112.100 188.301 L 197.400 188.200 197.501 95.300 C 197.556 44.205,197.449 2.400,197.263 2.400 C 197.076 2.400,196.626 2.729,196.262 3.131 " stroke="none" fill="#d40c3c" fill-rule="evenodd"></path><path id="path3" d="M30.267 193.467 C 29.744 193.989,29.995 197.098,30.600 197.600 C 30.930 197.874,31.200 198.442,31.200 198.862 C 31.200 199.281,31.470 199.729,31.800 199.855 C 32.130 199.982,32.400 200.522,32.400 201.055 C 32.400 201.589,32.670 202.129,33.000 202.255 C 33.422 202.417,33.605 203.095,33.617 204.543 C 33.632 206.324,33.793 206.732,34.817 207.581 C 35.468 208.121,36.000 208.864,36.000 209.232 C 36.000 209.601,36.270 210.126,36.600 210.400 C 36.930 210.674,37.200 211.484,37.200 212.200 C 37.200 212.916,37.470 213.726,37.800 214.000 C 38.171 214.308,38.400 215.187,38.400 216.303 C 38.400 217.715,38.618 218.310,39.400 219.035 C 39.950 219.545,40.400 220.294,40.400 220.700 C 40.400 221.105,40.932 221.879,41.583 222.419 C 42.607 223.268,42.768 223.676,42.783 225.457 C 42.795 226.905,42.978 227.583,43.400 227.745 C 43.730 227.871,44.000 228.319,44.000 228.738 C 44.000 229.158,44.270 229.726,44.600 230.000 C 44.930 230.274,45.200 230.814,45.200 231.200 C 45.200 231.586,45.470 232.126,45.800 232.400 C 46.130 232.674,46.400 233.214,46.400 233.600 C 46.400 233.986,46.670 234.526,47.000 234.800 C 47.330 235.074,47.600 235.614,47.600 236.000 C 47.600 236.386,47.870 236.926,48.200 237.200 C 48.530 237.474,48.800 237.970,48.800 238.303 C 48.800 238.636,49.250 239.325,49.800 239.835 C 50.350 240.345,50.800 241.136,50.800 241.593 C 50.800 242.051,51.070 242.529,51.400 242.655 C 51.730 242.782,52.000 243.297,52.000 243.800 C 52.000 244.303,52.270 244.818,52.600 244.945 C 52.979 245.090,53.200 245.704,53.200 246.613 C 53.200 247.720,53.476 248.284,54.400 249.061 C 55.276 249.799,55.600 250.419,55.600 251.361 C 55.600 252.271,55.953 252.988,56.800 253.800 C 57.650 254.614,58.000 255.328,58.000 256.246 C 58.000 257.152,58.301 257.779,59.000 258.329 C 59.550 258.761,60.000 259.500,60.000 259.970 C 60.000 260.440,60.270 260.929,60.600 261.055 C 60.930 261.182,61.200 261.680,61.200 262.162 C 61.200 262.644,61.731 263.478,62.383 264.019 C 63.034 264.558,63.574 265.293,63.583 265.651 C 63.592 266.009,63.870 266.526,64.200 266.800 C 64.530 267.074,64.800 267.707,64.800 268.206 C 64.800 268.706,65.070 269.218,65.400 269.345 C 65.730 269.471,66.000 269.937,66.000 270.379 C 66.000 270.822,66.810 271.930,67.800 272.843 C 69.212 274.145,69.600 274.777,69.600 275.781 C 69.600 276.629,69.938 277.378,70.600 278.000 C 71.150 278.517,71.600 279.234,71.600 279.595 C 71.600 279.955,72.140 280.768,72.800 281.400 C 73.460 282.032,74.000 282.839,74.000 283.194 C 74.000 283.548,74.532 284.279,75.183 284.819 C 75.842 285.366,76.374 286.204,76.383 286.713 C 76.392 287.214,76.670 287.729,77.000 287.855 C 77.330 287.982,77.600 288.427,77.600 288.843 C 77.600 289.260,78.320 290.300,79.200 291.154 C 80.080 292.008,80.800 292.996,80.800 293.350 C 80.800 293.704,81.326 294.495,81.968 295.109 C 82.715 295.823,83.184 296.721,83.268 297.597 C 83.372 298.680,83.611 299.017,84.400 299.201 C 85.021 299.345,85.447 299.758,85.524 300.290 C 85.593 300.761,86.448 301.921,87.424 302.867 C 88.401 303.814,89.200 304.872,89.200 305.219 C 89.200 305.566,89.740 306.368,90.400 307.000 C 91.060 307.632,91.600 308.445,91.600 308.805 C 91.600 309.166,92.040 309.874,92.579 310.380 C 93.117 310.886,93.612 311.680,93.679 312.146 C 93.747 312.620,94.152 313.055,94.600 313.136 C 95.667 313.328,97.200 314.778,97.200 315.595 C 97.200 315.955,97.740 316.768,98.400 317.400 C 99.060 318.032,99.600 318.805,99.600 319.116 C 99.600 319.428,100.847 320.917,102.370 322.425 C 103.894 323.934,105.199 325.580,105.270 326.084 C 105.364 326.745,105.706 327.035,106.500 327.127 C 107.296 327.218,107.600 327.477,107.600 328.062 C 107.600 328.507,108.410 329.659,109.400 330.621 C 110.390 331.583,111.200 332.643,111.200 332.976 C 111.200 333.310,112.173 334.555,113.362 335.744 C 114.550 336.933,115.586 338.234,115.664 338.635 C 115.741 339.037,116.163 339.463,116.602 339.582 C 117.791 339.907,119.200 341.277,119.200 342.109 C 119.200 342.906,121.894 345.595,122.695 345.598 C 123.434 345.601,124.799 346.890,124.804 347.589 C 124.810 348.514,129.792 353.516,130.859 353.667 C 131.417 353.747,131.849 354.122,131.933 354.600 C 132.103 355.561,134.751 358.400,135.477 358.400 C 136.279 358.400,137.600 359.701,137.600 360.492 C 137.600 361.308,143.920 367.599,144.740 367.599 C 145.592 367.600,148.000 370.231,148.000 371.160 C 148.000 371.762,148.255 372.002,148.900 372.007 C 150.018 372.015,151.600 373.626,151.600 374.756 C 151.600 375.353,151.852 375.600,152.460 375.600 C 152.978 375.600,154.169 376.476,155.451 377.800 C 156.623 379.010,157.868 380.000,158.218 380.000 C 158.568 380.000,159.924 381.080,161.232 382.400 C 162.540 383.720,163.955 384.800,164.378 384.800 C 164.919 384.800,165.184 385.126,165.273 385.900 C 165.367 386.714,165.652 387.036,166.368 387.137 C 166.901 387.212,167.796 387.797,168.357 388.437 C 168.919 389.077,169.717 389.600,170.132 389.600 C 170.546 389.600,171.239 390.050,171.671 390.600 C 172.104 391.150,172.769 391.600,173.149 391.600 C 174.044 391.600,174.800 392.369,174.800 393.280 C 174.800 393.699,175.093 394.000,175.500 394.001 C 175.885 394.001,177.280 395.076,178.600 396.389 C 179.920 397.702,181.278 398.782,181.619 398.788 C 181.959 398.795,182.941 399.520,183.800 400.400 C 184.946 401.574,185.687 402.000,186.581 402.001 C 187.603 402.002,188.543 402.747,192.385 406.601 C 194.907 409.130,197.112 411.200,197.285 411.200 C 197.458 411.200,197.600 362.150,197.600 302.200 L 197.600 193.200 114.067 193.200 C 68.123 193.200,30.413 193.320,30.267 193.467 " stroke="none" fill="#1c64f4" fill-rule="evenodd"></path><path id="path4" d="M191.476 0.289 C 190.858 0.382,190.254 0.715,190.134 1.029 C 190.013 1.343,189.484 1.600,188.957 1.600 C 188.373 1.600,188.000 1.834,188.000 2.200 C 188.000 2.600,187.600 2.800,186.800 2.800 C 186.000 2.800,185.600 3.000,185.600 3.400 C 185.600 3.880,185.000 4.000,182.600 4.000 C 180.200 4.000,179.600 4.120,179.600 4.600 C 179.600 4.930,179.420 5.200,179.200 5.200 C 178.980 5.200,178.800 5.470,178.800 5.800 C 178.800 6.244,178.333 6.400,177.000 6.400 C 175.667 6.400,175.200 6.556,175.200 7.000 C 175.200 7.400,174.800 7.600,174.000 7.600 C 173.200 7.600,172.800 7.800,172.800 8.200 C 172.800 8.644,172.333 8.800,171.000 8.800 C 169.667 8.800,169.200 8.956,169.200 9.400 C 169.200 9.773,168.822 10.000,168.200 10.000 C 167.650 10.000,167.200 10.180,167.200 10.400 C 167.200 10.620,166.390 10.800,165.400 10.800 C 164.067 10.800,163.600 10.956,163.600 11.400 C 163.600 11.844,163.133 12.000,161.800 12.000 C 160.467 12.000,160.000 12.156,160.000 12.600 C 160.000 12.973,159.622 13.200,159.000 13.200 C 158.378 13.200,158.000 13.427,158.000 13.800 C 158.000 14.244,157.533 14.400,156.200 14.400 C 154.867 14.400,154.400 14.556,154.400 15.000 C 154.400 15.400,154.000 15.600,153.200 15.600 C 152.400 15.600,152.000 15.800,152.000 16.200 C 152.000 16.600,151.600 16.800,150.800 16.800 C 150.000 16.800,149.600 17.000,149.600 17.400 C 149.600 17.861,149.089 18.000,147.400 18.000 C 145.711 18.000,145.200 18.139,145.200 18.600 C 145.200 19.044,144.733 19.200,143.400 19.200 C 142.067 19.200,141.600 19.356,141.600 19.800 C 141.600 20.256,141.094 20.403,139.500 20.413 C 137.431 20.425,136.000 21.051,136.000 21.944 C 136.000 22.245,134.979 22.400,133.000 22.400 C 130.600 22.400,130.000 22.520,130.000 23.000 C 130.000 23.400,129.600 23.600,128.800 23.600 C 128.000 23.600,127.600 23.800,127.600 24.200 C 127.600 24.573,127.222 24.800,126.600 24.800 C 125.978 24.800,125.600 25.027,125.600 25.400 C 125.600 25.889,124.933 26.000,122.000 26.000 C 119.067 26.000,118.400 26.111,118.400 26.600 C 118.400 27.033,117.956 27.200,116.800 27.200 C 115.644 27.200,115.200 27.367,115.200 27.800 C 115.200 28.267,114.667 28.400,112.800 28.400 C 110.933 28.400,110.400 28.533,110.400 29.000 C 110.400 29.330,110.130 29.600,109.800 29.600 C 109.470 29.600,109.200 29.870,109.200 30.200 C 109.200 30.676,108.622 30.800,106.400 30.800 C 104.800 30.800,103.600 30.971,103.600 31.200 C 103.600 31.422,102.533 31.600,101.200 31.600 C 99.333 31.600,98.800 31.733,98.800 32.200 C 98.800 32.634,98.354 32.800,97.187 32.800 C 96.123 32.800,95.497 33.004,95.345 33.400 C 95.179 33.831,94.506 34.000,92.957 34.000 C 91.306 34.000,90.800 34.141,90.800 34.600 C 90.800 35.044,90.333 35.200,89.000 35.200 C 87.667 35.200,87.200 35.356,87.200 35.800 C 87.200 36.299,86.422 36.400,82.600 36.400 C 78.778 36.400,78.000 36.501,78.000 37.000 C 78.000 37.330,77.730 37.600,77.400 37.600 C 77.070 37.600,76.800 37.870,76.800 38.200 C 76.800 38.693,76.089 38.800,72.800 38.800 C 69.511 38.800,68.800 38.907,68.800 39.400 C 68.800 39.886,68.156 40.000,65.400 40.000 C 62.644 40.000,62.000 40.114,62.000 40.600 C 62.000 41.000,61.600 41.200,60.800 41.200 C 60.140 41.200,59.600 41.380,59.600 41.600 C 59.600 41.840,58.000 42.000,55.600 42.000 C 52.311 42.000,51.600 42.107,51.600 42.600 C 51.600 43.067,51.067 43.200,49.200 43.200 C 47.333 43.200,46.800 43.333,46.800 43.800 C 46.800 44.299,46.022 44.400,42.200 44.400 C 38.378 44.400,37.600 44.501,37.600 45.000 C 37.600 45.499,36.822 45.600,33.000 45.600 C 29.178 45.600,28.400 45.701,28.400 46.200 C 28.400 46.706,27.489 46.800,22.600 46.800 C 17.711 46.800,16.800 46.894,16.800 47.400 C 16.800 47.908,15.822 48.000,10.400 48.000 L 4.000 48.000 4.000 49.200 C 4.000 50.000,3.800 50.400,3.400 50.400 C 2.967 50.400,2.800 50.844,2.800 52.000 C 2.800 53.156,2.633 53.600,2.200 53.600 C 1.733 53.600,1.600 54.133,1.600 56.000 C 1.600 57.867,1.733 58.400,2.200 58.400 C 2.686 58.400,2.800 59.044,2.800 61.800 C 2.800 64.556,2.686 65.200,2.200 65.200 C 1.714 65.200,1.600 65.846,1.600 68.613 C 1.600 71.277,1.732 72.076,2.200 72.255 C 2.701 72.447,2.800 73.605,2.800 79.243 C 2.800 84.983,2.890 86.000,3.400 86.000 C 3.918 86.000,4.000 87.422,4.000 96.400 C 4.000 105.378,4.082 106.800,4.600 106.800 C 5.080 106.800,5.200 107.400,5.200 109.800 C 5.200 112.200,5.320 112.800,5.800 112.800 C 6.173 112.800,6.400 113.178,6.400 113.800 C 6.400 114.422,6.173 114.800,5.800 114.800 C 5.297 114.800,5.200 115.644,5.200 120.000 C 5.200 124.356,5.297 125.200,5.800 125.200 C 6.267 125.200,6.400 125.733,6.400 127.600 C 6.400 129.467,6.533 130.000,7.000 130.000 C 7.400 130.000,7.600 130.400,7.600 131.200 C 7.600 132.000,7.800 132.400,8.200 132.400 C 8.706 132.400,8.800 133.311,8.800 138.200 C 8.800 143.089,8.894 144.000,9.400 144.000 C 9.861 144.000,10.000 144.511,10.000 146.200 C 10.000 147.410,10.180 148.400,10.400 148.400 C 10.620 148.400,10.800 149.396,10.800 150.613 C 10.800 152.210,10.967 152.889,11.400 153.055 C 11.730 153.182,12.000 153.676,12.000 154.154 C 12.000 155.012,13.239 156.400,14.005 156.400 C 14.230 156.400,14.400 157.690,14.400 159.400 C 14.400 161.800,14.520 162.400,15.000 162.400 C 15.444 162.400,15.600 162.867,15.600 164.200 C 15.600 165.533,15.756 166.000,16.200 166.000 C 16.693 166.000,16.800 166.711,16.800 170.000 C 16.800 173.289,16.907 174.000,17.400 174.000 C 17.833 174.000,18.000 174.444,18.000 175.600 C 18.000 176.756,18.167 177.200,18.600 177.200 C 19.080 177.200,19.200 177.800,19.200 180.200 C 19.200 182.600,19.320 183.200,19.800 183.200 C 20.200 183.200,20.400 183.600,20.400 184.400 C 20.400 185.060,20.580 185.600,20.800 185.600 C 21.020 185.600,21.200 186.320,21.200 187.200 C 21.200 188.356,21.367 188.800,21.800 188.800 C 22.200 188.800,22.400 189.200,22.400 190.000 C 22.400 190.800,22.600 191.200,23.000 191.200 C 23.400 191.200,23.600 191.600,23.600 192.400 C 23.600 193.200,23.800 193.600,24.200 193.600 C 24.644 193.600,24.800 194.067,24.800 195.400 C 24.800 196.733,24.956 197.200,25.400 197.200 C 25.861 197.200,26.000 197.711,26.000 199.400 C 26.000 201.089,26.139 201.600,26.600 201.600 C 26.930 201.600,27.200 201.870,27.200 202.200 C 27.200 202.530,27.470 202.800,27.800 202.800 C 28.244 202.800,28.400 203.267,28.400 204.600 C 28.400 205.933,28.556 206.400,29.000 206.400 C 29.373 206.400,29.600 206.778,29.600 207.400 C 29.600 208.022,29.827 208.400,30.200 208.400 C 30.644 208.400,30.800 208.867,30.800 210.200 C 30.800 211.190,30.980 212.000,31.200 212.000 C 31.420 212.000,31.600 212.456,31.600 213.013 C 31.600 213.569,31.870 214.129,32.200 214.255 C 32.592 214.406,32.800 215.029,32.800 216.055 C 32.800 217.082,33.008 217.705,33.400 217.855 C 33.730 217.982,34.000 218.516,34.000 219.043 C 34.000 219.627,34.234 220.000,34.600 220.000 C 35.044 220.000,35.200 220.467,35.200 221.800 C 35.200 223.133,35.356 223.600,35.800 223.600 C 36.130 223.600,36.400 223.870,36.400 224.200 C 36.400 224.530,36.670 224.800,37.000 224.800 C 37.444 224.800,37.600 225.267,37.600 226.600 C 37.600 227.933,37.756 228.400,38.200 228.400 C 38.573 228.400,38.800 228.778,38.800 229.400 C 38.800 230.022,39.027 230.400,39.400 230.400 C 39.844 230.400,40.000 230.867,40.000 232.200 C 40.000 233.533,40.156 234.000,40.600 234.000 C 40.930 234.000,41.200 234.189,41.200 234.419 C 41.200 234.650,41.650 235.255,42.200 235.765 C 42.913 236.426,43.200 237.109,43.200 238.146 C 43.200 239.172,43.377 239.600,43.800 239.600 C 44.130 239.600,44.400 239.870,44.400 240.200 C 44.400 240.530,44.670 240.800,45.000 240.800 C 45.444 240.800,45.600 241.267,45.600 242.600 C 45.600 243.933,45.756 244.400,46.200 244.400 C 46.530 244.400,46.800 244.670,46.800 245.000 C 46.800 245.330,47.070 245.600,47.400 245.600 C 47.844 245.600,48.000 246.067,48.000 247.400 C 48.000 248.733,48.156 249.200,48.600 249.200 C 48.930 249.200,49.200 249.380,49.200 249.600 C 49.200 249.820,49.470 250.000,49.800 250.000 C 50.244 250.000,50.400 250.467,50.400 251.800 C 50.400 253.133,50.556 253.600,51.000 253.600 C 51.330 253.600,51.600 253.870,51.600 254.200 C 51.600 254.530,51.870 254.800,52.200 254.800 C 52.644 254.800,52.800 255.267,52.800 256.600 C 52.800 257.590,52.980 258.400,53.200 258.400 C 53.420 258.400,53.600 258.850,53.600 259.400 C 53.600 260.022,53.827 260.400,54.200 260.400 C 54.600 260.400,54.800 260.800,54.800 261.600 C 54.800 262.400,55.000 262.800,55.400 262.800 C 55.730 262.800,56.000 263.070,56.000 263.400 C 56.000 263.730,56.270 264.000,56.600 264.000 C 57.000 264.000,57.200 264.400,57.200 265.200 C 57.200 266.000,57.400 266.400,57.800 266.400 C 58.200 266.400,58.400 266.800,58.400 267.600 C 58.400 268.400,58.600 268.800,59.000 268.800 C 59.373 268.800,59.600 269.178,59.600 269.800 C 59.600 270.422,59.827 270.800,60.200 270.800 C 60.530 270.800,60.800 271.070,60.800 271.400 C 60.800 271.730,61.070 272.000,61.400 272.000 C 61.844 272.000,62.000 272.467,62.000 273.800 C 62.000 275.133,62.156 275.600,62.600 275.600 C 62.930 275.600,63.200 275.870,63.200 276.200 C 63.200 276.530,63.380 276.800,63.600 276.800 C 63.820 276.800,64.000 277.070,64.000 277.400 C 64.000 277.730,64.270 278.000,64.600 278.000 C 64.975 278.000,65.200 278.379,65.200 279.013 C 65.200 279.569,65.470 280.129,65.800 280.255 C 66.130 280.382,66.400 280.916,66.400 281.443 C 66.400 282.027,66.634 282.400,67.000 282.400 C 67.330 282.400,67.600 282.670,67.600 283.000 C 67.600 283.330,67.870 283.600,68.200 283.600 C 68.600 283.600,68.800 284.000,68.800 284.800 C 68.800 285.600,69.000 286.000,69.400 286.000 C 69.730 286.000,70.000 286.270,70.000 286.600 C 70.000 286.930,70.270 287.200,70.600 287.200 C 70.930 287.200,71.200 287.470,71.200 287.800 C 71.200 288.130,71.470 288.400,71.800 288.400 C 72.200 288.400,72.400 288.800,72.400 289.600 C 72.400 290.400,72.600 290.800,73.000 290.800 C 73.373 290.800,73.600 291.178,73.600 291.800 C 73.600 292.350,73.780 292.800,74.000 292.800 C 74.220 292.800,74.400 293.340,74.400 294.000 C 74.400 294.800,74.600 295.200,75.000 295.200 C 75.330 295.200,75.600 295.470,75.600 295.800 C 75.600 296.130,75.870 296.400,76.200 296.400 C 76.530 296.400,76.800 296.670,76.800 297.000 C 76.800 297.330,77.070 297.600,77.400 297.600 C 77.730 297.600,78.000 297.870,78.000 298.200 C 78.000 298.530,78.270 298.800,78.600 298.800 C 79.000 298.800,79.200 299.200,79.200 300.000 C 79.200 300.800,79.400 301.200,79.800 301.200 C 80.173 301.200,80.400 301.578,80.400 302.200 C 80.400 302.822,80.627 303.200,81.000 303.200 C 81.330 303.200,81.600 303.470,81.600 303.800 C 81.600 304.130,81.870 304.400,82.200 304.400 C 82.600 304.400,82.800 304.800,82.800 305.600 C 82.800 306.400,83.000 306.800,83.400 306.800 C 83.730 306.800,84.000 307.070,84.000 307.400 C 84.000 307.730,84.180 308.000,84.400 308.000 C 84.620 308.000,84.800 308.270,84.800 308.600 C 84.800 308.930,85.070 309.200,85.400 309.200 C 85.758 309.200,86.000 309.568,86.000 310.111 C 86.000 311.004,87.223 312.400,88.005 312.400 C 88.222 312.400,88.400 312.940,88.400 313.600 C 88.400 314.667,88.533 314.800,89.600 314.800 C 90.756 314.800,90.800 314.867,90.800 316.600 C 90.800 318.333,90.844 318.400,92.000 318.400 C 93.067 318.400,93.200 318.533,93.200 319.600 C 93.200 320.400,93.400 320.800,93.800 320.800 C 94.130 320.800,94.400 320.993,94.400 321.229 C 94.400 321.782,95.418 322.800,95.971 322.800 C 96.207 322.800,96.400 323.070,96.400 323.400 C 96.400 323.730,96.670 324.000,97.000 324.000 C 97.400 324.000,97.600 324.400,97.600 325.200 C 97.600 326.000,97.800 326.400,98.200 326.400 C 98.530 326.400,98.800 326.670,98.800 327.000 C 98.800 327.330,99.070 327.600,99.400 327.600 C 99.730 327.600,100.000 327.870,100.000 328.200 C 100.000 328.530,100.270 328.800,100.600 328.800 C 100.930 328.800,101.200 329.070,101.200 329.400 C 101.200 329.730,101.470 330.000,101.800 330.000 C 102.130 330.000,102.400 330.270,102.400 330.600 C 102.400 330.930,102.670 331.200,103.000 331.200 C 103.373 331.200,103.600 331.578,103.600 332.200 C 103.600 332.822,103.827 333.200,104.200 333.200 C 104.530 333.200,104.800 333.470,104.800 333.800 C 104.800 334.130,104.980 334.400,105.200 334.400 C 105.420 334.400,105.600 334.670,105.600 335.000 C 105.600 335.330,105.870 335.600,106.200 335.600 C 106.530 335.600,106.800 335.870,106.800 336.200 C 106.800 336.530,107.070 336.800,107.400 336.800 C 107.800 336.800,108.000 337.200,108.000 338.000 C 108.000 338.800,108.200 339.200,108.600 339.200 C 108.930 339.200,109.200 339.470,109.200 339.800 C 109.200 340.130,109.470 340.400,109.800 340.400 C 110.130 340.400,110.400 340.670,110.400 341.000 C 110.400 341.330,110.670 341.600,111.000 341.600 C 111.330 341.600,111.600 341.870,111.600 342.200 C 111.600 342.530,111.870 342.800,112.200 342.800 C 112.573 342.800,112.800 343.178,112.800 343.800 C 112.800 344.644,112.987 344.800,114.000 344.800 C 114.800 344.800,115.200 345.000,115.200 345.400 C 115.200 345.730,115.380 346.000,115.600 346.000 C 115.820 346.000,116.000 346.270,116.000 346.600 C 116.000 346.930,116.270 347.200,116.600 347.200 C 117.000 347.200,117.200 347.600,117.200 348.400 C 117.200 349.200,117.400 349.600,117.800 349.600 C 118.130 349.600,118.400 349.870,118.400 350.200 C 118.400 350.600,118.800 350.800,119.600 350.800 C 120.400 350.800,120.800 351.000,120.800 351.400 C 120.800 351.730,121.070 352.000,121.400 352.000 C 121.730 352.000,122.000 352.270,122.000 352.600 C 122.000 352.930,122.270 353.200,122.600 353.200 C 122.930 353.200,123.200 353.380,123.200 353.600 C 123.200 353.820,123.470 354.000,123.800 354.000 C 124.200 354.000,124.400 354.400,124.400 355.200 C 124.400 356.000,124.600 356.400,125.000 356.400 C 125.330 356.400,125.600 356.578,125.600 356.795 C 125.600 357.577,126.996 358.800,127.889 358.800 C 128.432 358.800,128.800 359.042,128.800 359.400 C 128.800 359.730,129.070 360.000,129.400 360.000 C 129.800 360.000,130.000 360.400,130.000 361.200 C 130.000 362.267,130.133 362.400,131.200 362.400 C 132.213 362.400,132.400 362.556,132.400 363.400 C 132.400 364.244,132.587 364.400,133.600 364.400 C 134.667 364.400,134.800 364.533,134.800 365.600 C 134.800 366.613,134.956 366.800,135.800 366.800 C 136.603 366.800,136.800 366.999,136.800 367.813 C 136.800 368.369,137.070 368.929,137.400 369.055 C 137.730 369.182,138.000 369.536,138.000 369.843 C 138.000 370.149,138.270 370.400,138.600 370.400 C 138.930 370.400,139.200 370.670,139.200 371.000 C 139.200 371.400,139.600 371.600,140.400 371.600 C 141.200 371.600,141.600 371.800,141.600 372.200 C 141.600 372.530,141.870 372.800,142.200 372.800 C 142.530 372.800,142.800 373.070,142.800 373.400 C 142.800 373.730,143.070 374.000,143.400 374.000 C 143.730 374.000,144.000 374.180,144.000 374.400 C 144.000 374.620,144.540 374.800,145.200 374.800 C 146.267 374.800,146.400 374.933,146.400 376.000 C 146.400 376.800,146.600 377.200,147.000 377.200 C 147.330 377.200,147.600 377.470,147.600 377.800 C 147.600 378.130,147.780 378.400,148.000 378.400 C 148.220 378.400,148.400 378.670,148.400 379.000 C 148.400 379.330,148.670 379.600,149.000 379.600 C 149.330 379.600,149.600 379.870,149.600 380.200 C 149.600 380.600,150.000 380.800,150.800 380.800 C 151.600 380.800,152.000 381.000,152.000 381.400 C 152.000 381.730,152.270 382.000,152.600 382.000 C 152.930 382.000,153.200 382.270,153.200 382.600 C 153.200 382.930,153.470 383.200,153.800 383.200 C 154.130 383.200,154.400 383.470,154.400 383.800 C 154.400 384.130,154.670 384.400,155.000 384.400 C 155.330 384.400,155.600 384.580,155.600 384.800 C 155.600 385.020,155.870 385.200,156.200 385.200 C 156.530 385.200,156.800 385.470,156.800 385.800 C 156.800 386.173,157.178 386.400,157.800 386.400 C 158.422 386.400,158.800 386.627,158.800 387.000 C 158.800 387.330,159.070 387.600,159.400 387.600 C 159.730 387.600,160.000 387.870,160.000 388.200 C 160.000 388.530,160.270 388.800,160.600 388.800 C 160.930 388.800,161.200 389.070,161.200 389.400 C 161.200 389.730,161.470 390.000,161.800 390.000 C 162.130 390.000,162.400 390.270,162.400 390.600 C 162.400 390.930,162.670 391.200,163.000 391.200 C 163.330 391.200,163.600 391.470,163.600 391.800 C 163.600 392.200,164.000 392.400,164.800 392.400 C 165.600 392.400,166.000 392.600,166.000 393.000 C 166.000 393.330,166.270 393.600,166.600 393.600 C 166.930 393.600,167.200 393.870,167.200 394.200 C 167.200 394.573,167.578 394.800,168.200 394.800 C 168.750 394.800,169.200 394.980,169.200 395.200 C 169.200 395.420,169.470 395.600,169.800 395.600 C 170.130 395.600,170.400 395.870,170.400 396.200 C 170.400 396.530,170.670 396.800,171.000 396.800 C 171.330 396.800,171.600 397.070,171.600 397.400 C 171.600 397.730,171.870 398.000,172.200 398.000 C 172.530 398.000,172.800 398.270,172.800 398.600 C 172.800 398.930,173.070 399.200,173.400 399.200 C 173.730 399.200,174.000 399.470,174.000 399.800 C 174.000 400.200,174.400 400.400,175.200 400.400 C 176.000 400.400,176.400 400.600,176.400 401.000 C 176.400 401.330,176.670 401.600,177.000 401.600 C 177.330 401.600,177.600 401.870,177.600 402.200 C 177.600 402.530,177.870 402.800,178.200 402.800 C 178.530 402.800,178.800 402.978,178.800 403.195 C 178.800 403.977,180.196 405.200,181.089 405.200 C 181.590 405.200,182.000 405.380,182.000 405.600 C 182.000 405.820,182.270 406.000,182.600 406.000 C 182.930 406.000,183.200 406.270,183.200 406.600 C 183.200 407.000,183.600 407.200,184.400 407.200 C 185.200 407.200,185.600 407.400,185.600 407.800 C 185.600 408.200,186.000 408.400,186.800 408.400 C 187.867 408.400,188.000 408.533,188.000 409.600 C 188.000 410.613,188.156 410.800,189.000 410.800 C 189.622 410.800,190.000 411.027,190.000 411.400 C 190.000 411.730,190.270 412.000,190.600 412.000 C 190.930 412.000,191.200 412.270,191.200 412.600 C 191.200 412.930,191.470 413.200,191.800 413.200 C 192.130 413.200,192.400 413.470,192.400 413.800 C 192.400 414.130,192.670 414.400,193.000 414.400 C 193.330 414.400,193.600 414.649,193.600 414.953 C 193.600 415.785,194.912 415.989,200.300 415.995 C 204.935 416.000,205.200 415.957,205.200 415.200 C 205.200 414.578,205.467 414.400,206.400 414.400 C 207.467 414.400,207.600 414.267,207.600 413.200 C 207.600 412.133,207.733 412.000,208.800 412.000 C 209.600 412.000,210.000 411.800,210.000 411.400 C 210.000 411.027,210.378 410.800,211.000 410.800 C 211.844 410.800,212.000 410.613,212.000 409.600 C 212.000 408.444,212.067 408.400,213.800 408.400 C 215.133 408.400,215.600 408.244,215.600 407.800 C 215.600 407.470,215.870 407.200,216.200 407.200 C 216.530 407.200,216.800 406.930,216.800 406.600 C 216.800 406.270,217.070 406.000,217.400 406.000 C 217.730 406.000,218.000 405.832,218.000 405.627 C 218.000 405.421,218.495 405.196,219.100 405.127 C 219.964 405.027,220.227 404.764,220.327 403.900 C 220.426 403.036,220.662 402.800,221.427 402.800 C 222.025 402.800,222.400 402.569,222.400 402.200 C 222.400 401.870,222.670 401.600,223.000 401.600 C 223.330 401.600,223.600 401.330,223.600 401.000 C 223.600 400.670,223.870 400.400,224.200 400.400 C 224.530 400.400,224.800 400.130,224.800 399.800 C 224.800 399.400,225.200 399.200,226.000 399.200 C 226.800 399.200,227.200 399.000,227.200 398.600 C 227.200 398.270,227.470 398.000,227.800 398.000 C 228.130 398.000,228.400 397.730,228.400 397.400 C 228.400 397.070,228.670 396.800,229.000 396.800 C 229.330 396.800,229.600 396.530,229.600 396.200 C 229.600 395.870,229.870 395.600,230.200 395.600 C 230.530 395.600,230.800 395.420,230.800 395.200 C 230.800 394.980,231.250 394.800,231.800 394.800 C 232.422 394.800,232.800 394.573,232.800 394.200 C 232.800 393.870,233.070 393.600,233.400 393.600 C 233.730 393.600,234.000 393.330,234.000 393.000 C 234.000 392.670,234.270 392.400,234.600 392.400 C 234.930 392.400,235.200 392.130,235.200 391.800 C 235.200 391.470,235.470 391.200,235.800 391.200 C 236.130 391.200,236.400 390.930,236.400 390.600 C 236.400 390.270,236.670 390.000,237.000 390.000 C 237.330 390.000,237.600 389.730,237.600 389.400 C 237.600 389.000,238.000 388.800,238.800 388.800 C 239.600 388.800,240.000 388.600,240.000 388.200 C 240.000 387.870,240.270 387.600,240.600 387.600 C 240.930 387.600,241.200 387.330,241.200 387.000 C 241.200 386.670,241.380 386.400,241.600 386.400 C 241.820 386.400,242.000 386.130,242.000 385.800 C 242.000 385.470,242.270 385.200,242.600 385.200 C 242.930 385.200,243.200 385.020,243.200 384.800 C 243.200 384.580,243.740 384.400,244.400 384.400 C 245.200 384.400,245.600 384.200,245.600 383.800 C 245.600 383.470,245.870 383.200,246.200 383.200 C 246.530 383.200,246.800 382.930,246.800 382.600 C 246.800 382.270,247.070 382.000,247.400 382.000 C 247.730 382.000,248.000 381.730,248.000 381.400 C 248.000 381.070,248.270 380.800,248.600 380.800 C 248.930 380.800,249.200 380.530,249.200 380.200 C 249.200 379.870,249.470 379.600,249.800 379.600 C 250.130 379.600,250.400 379.330,250.400 379.000 C 250.400 378.600,250.800 378.400,251.600 378.400 C 252.400 378.400,252.800 378.200,252.800 377.800 C 252.800 377.470,252.980 377.200,253.200 377.200 C 253.420 377.200,253.600 376.930,253.600 376.600 C 253.600 376.270,253.870 376.000,254.200 376.000 C 254.530 376.000,254.800 375.730,254.800 375.400 C 254.800 375.070,255.070 374.800,255.400 374.800 C 255.773 374.800,256.000 374.422,256.000 373.800 C 256.000 372.956,256.187 372.800,257.200 372.800 C 258.000 372.800,258.400 372.600,258.400 372.200 C 258.400 371.870,258.670 371.600,259.000 371.600 C 259.330 371.600,259.600 371.330,259.600 371.000 C 259.600 370.670,259.870 370.400,260.200 370.400 C 260.530 370.400,260.800 370.130,260.800 369.800 C 260.800 369.470,261.070 369.200,261.400 369.200 C 261.730 369.200,262.000 368.930,262.000 368.600 C 262.000 368.270,262.270 368.000,262.600 368.000 C 262.930 368.000,263.200 367.730,263.200 367.400 C 263.200 367.070,263.380 366.800,263.600 366.800 C 263.820 366.800,264.000 366.530,264.000 366.200 C 264.000 365.870,264.270 365.600,264.600 365.600 C 264.930 365.600,265.200 365.330,265.200 365.000 C 265.200 364.670,265.470 364.400,265.800 364.400 C 266.130 364.400,266.400 364.220,266.400 364.000 C 266.400 363.780,266.670 363.600,267.000 363.600 C 267.330 363.600,267.600 363.330,267.600 363.000 C 267.600 362.600,268.000 362.400,268.800 362.400 C 269.867 362.400,270.000 362.267,270.000 361.200 C 270.000 360.133,270.133 360.000,271.200 360.000 C 272.000 360.000,272.400 359.800,272.400 359.400 C 272.400 359.070,272.670 358.800,273.000 358.800 C 273.330 358.800,273.600 358.530,273.600 358.200 C 273.600 357.870,273.780 357.600,274.000 357.600 C 274.220 357.600,274.400 357.330,274.400 357.000 C 274.400 356.670,274.670 356.400,275.000 356.400 C 275.330 356.400,275.600 356.130,275.600 355.800 C 275.600 355.470,275.870 355.200,276.200 355.200 C 276.573 355.200,276.800 354.822,276.800 354.200 C 276.800 353.578,277.027 353.200,277.400 353.200 C 277.730 353.200,278.000 352.930,278.000 352.600 C 278.000 352.270,278.270 352.000,278.600 352.000 C 278.930 352.000,279.200 351.730,279.200 351.400 C 279.200 351.070,279.470 350.800,279.800 350.800 C 280.130 350.800,280.400 350.530,280.400 350.200 C 280.400 349.870,280.670 349.600,281.000 349.600 C 281.330 349.600,281.600 349.330,281.600 349.000 C 281.600 348.670,281.870 348.400,282.200 348.400 C 282.530 348.400,282.800 348.130,282.800 347.800 C 282.800 347.470,283.070 347.200,283.400 347.200 C 283.730 347.200,284.000 346.930,284.000 346.600 C 284.000 346.270,284.180 346.000,284.400 346.000 C 284.620 346.000,284.800 345.730,284.800 345.400 C 284.800 345.070,285.070 344.800,285.400 344.800 C 285.730 344.800,286.000 344.530,286.000 344.200 C 286.000 343.870,286.270 343.600,286.600 343.600 C 286.973 343.600,287.200 343.222,287.200 342.600 C 287.200 341.978,287.427 341.600,287.800 341.600 C 288.130 341.600,288.400 341.330,288.400 341.000 C 288.400 340.600,288.800 340.400,289.600 340.400 C 290.400 340.400,290.800 340.200,290.800 339.800 C 290.800 339.470,291.070 339.200,291.400 339.200 C 291.800 339.200,292.000 338.800,292.000 338.000 C 292.000 337.200,292.200 336.800,292.600 336.800 C 292.930 336.800,293.200 336.530,293.200 336.200 C 293.200 335.870,293.470 335.600,293.800 335.600 C 294.130 335.600,294.400 335.330,294.400 335.000 C 294.400 334.670,294.580 334.400,294.800 334.400 C 295.020 334.400,295.200 334.130,295.200 333.800 C 295.200 333.470,295.470 333.200,295.800 333.200 C 296.173 333.200,296.400 332.822,296.400 332.200 C 296.400 331.578,296.627 331.200,297.000 331.200 C 297.330 331.200,297.600 330.930,297.600 330.600 C 297.600 330.270,297.870 330.000,298.200 330.000 C 298.530 330.000,298.800 329.730,298.800 329.400 C 298.800 329.070,299.070 328.800,299.400 328.800 C 299.730 328.800,300.000 328.530,300.000 328.200 C 300.000 327.870,300.270 327.600,300.600 327.600 C 301.000 327.600,301.200 327.200,301.200 326.400 C 301.200 325.600,301.400 325.200,301.800 325.200 C 302.130 325.200,302.400 324.930,302.400 324.600 C 302.400 324.270,302.670 324.000,303.000 324.000 C 303.330 324.000,303.600 323.730,303.600 323.400 C 303.600 323.070,303.870 322.800,304.200 322.800 C 304.573 322.800,304.800 322.422,304.800 321.800 C 304.800 321.250,304.980 320.800,305.200 320.800 C 305.420 320.800,305.600 320.530,305.600 320.200 C 305.600 319.870,305.870 319.600,306.200 319.600 C 306.530 319.600,306.800 319.330,306.800 319.000 C 306.800 318.670,307.070 318.400,307.400 318.400 C 307.730 318.400,308.000 318.130,308.000 317.800 C 308.000 317.470,308.270 317.200,308.600 317.200 C 309.000 317.200,309.200 316.800,309.200 316.000 C 309.200 315.200,309.400 314.800,309.800 314.800 C 310.130 314.800,310.400 314.530,310.400 314.200 C 310.400 313.870,310.670 313.600,311.000 313.600 C 311.330 313.600,311.600 313.330,311.600 313.000 C 311.600 312.670,311.870 312.400,312.200 312.400 C 312.530 312.400,312.800 312.220,312.800 312.000 C 312.800 311.780,313.070 311.600,313.400 311.600 C 313.800 311.600,314.000 311.200,314.000 310.400 C 314.000 309.600,314.200 309.200,314.600 309.200 C 314.930 309.200,315.200 308.930,315.200 308.600 C 315.200 308.270,315.380 308.000,315.600 308.000 C 315.820 308.000,316.000 307.460,316.000 306.800 C 316.000 306.000,316.200 305.600,316.600 305.600 C 316.930 305.600,317.200 305.330,317.200 305.000 C 317.200 304.670,317.470 304.400,317.800 304.400 C 318.200 304.400,318.400 304.000,318.400 303.200 C 318.400 302.400,318.600 302.000,319.000 302.000 C 319.330 302.000,319.600 301.820,319.600 301.600 C 319.600 301.380,319.870 301.200,320.200 301.200 C 320.600 301.200,320.800 300.800,320.800 300.000 C 320.800 299.200,321.000 298.800,321.400 298.800 C 321.730 298.800,322.000 298.530,322.000 298.200 C 322.000 297.870,322.270 297.600,322.600 297.600 C 323.000 297.600,323.200 297.200,323.200 296.400 C 323.200 295.600,323.400 295.200,323.800 295.200 C 324.130 295.200,324.400 294.930,324.400 294.600 C 324.400 294.270,324.670 294.000,325.000 294.000 C 325.378 294.000,325.600 293.619,325.600 292.971 C 325.600 291.917,326.408 290.800,327.171 290.800 C 327.407 290.800,327.600 290.260,327.600 289.600 C 327.600 288.800,327.800 288.400,328.200 288.400 C 328.530 288.400,328.800 288.130,328.800 287.800 C 328.800 287.470,329.070 287.200,329.400 287.200 C 329.800 287.200,330.000 286.800,330.000 286.000 C 330.000 285.200,330.200 284.800,330.600 284.800 C 331.000 284.800,331.200 284.400,331.200 283.600 C 331.200 282.533,331.333 282.400,332.400 282.400 C 333.533 282.400,333.600 282.311,333.600 280.800 C 333.600 279.644,333.767 279.200,334.200 279.200 C 334.530 279.200,334.800 278.930,334.800 278.600 C 334.800 278.270,335.070 278.000,335.400 278.000 C 335.800 278.000,336.000 277.600,336.000 276.800 C 336.000 276.140,336.180 275.600,336.400 275.600 C 336.620 275.600,336.800 275.330,336.800 275.000 C 336.800 274.670,337.070 274.400,337.400 274.400 C 337.844 274.400,338.000 273.933,338.000 272.600 C 338.000 271.267,338.156 270.800,338.600 270.800 C 338.973 270.800,339.200 270.422,339.200 269.800 C 339.200 269.178,339.427 268.800,339.800 268.800 C 340.200 268.800,340.400 268.400,340.400 267.600 C 340.400 266.533,340.533 266.400,341.600 266.400 C 342.756 266.400,342.800 266.333,342.800 264.600 C 342.800 263.267,342.956 262.800,343.400 262.800 C 343.730 262.800,344.000 262.530,344.000 262.200 C 344.000 261.870,344.270 261.600,344.600 261.600 C 344.966 261.600,345.200 261.227,345.200 260.643 C 345.200 260.116,345.470 259.582,345.800 259.455 C 346.130 259.329,346.400 258.769,346.400 258.213 C 346.400 257.656,346.580 257.200,346.800 257.200 C 347.020 257.200,347.200 256.660,347.200 256.000 C 347.200 255.200,347.400 254.800,347.800 254.800 C 348.200 254.800,348.400 254.400,348.400 253.600 C 348.400 252.800,348.600 252.400,349.000 252.400 C 349.400 252.400,349.600 252.000,349.600 251.200 C 349.600 250.400,349.800 250.000,350.200 250.000 C 350.573 250.000,350.800 249.622,350.800 249.000 C 350.800 248.378,351.027 248.000,351.400 248.000 C 351.800 248.000,352.000 247.600,352.000 246.800 C 352.000 246.000,352.200 245.600,352.600 245.600 C 352.930 245.600,353.200 245.330,353.200 245.000 C 353.200 244.670,353.470 244.400,353.800 244.400 C 354.244 244.400,354.400 243.933,354.400 242.600 C 354.400 241.267,354.556 240.800,355.000 240.800 C 355.366 240.800,355.600 240.427,355.600 239.843 C 355.600 239.316,355.870 238.782,356.200 238.655 C 356.530 238.529,356.800 237.969,356.800 237.413 C 356.800 236.779,357.025 236.400,357.400 236.400 C 357.800 236.400,358.000 236.000,358.000 235.200 C 358.000 234.540,358.180 234.000,358.400 234.000 C 358.620 234.000,358.800 233.460,358.800 232.800 C 358.800 232.000,359.000 231.600,359.400 231.600 C 359.833 231.600,360.000 231.156,360.000 230.000 C 360.000 228.844,360.167 228.400,360.600 228.400 C 360.930 228.400,361.200 228.130,361.200 227.800 C 361.200 227.470,361.470 227.200,361.800 227.200 C 362.244 227.200,362.400 226.733,362.400 225.400 C 362.400 224.067,362.556 223.600,363.000 223.600 C 363.330 223.600,363.600 223.330,363.600 223.000 C 363.600 222.670,363.870 222.400,364.200 222.400 C 364.661 222.400,364.800 221.889,364.800 220.200 C 364.800 218.511,364.939 218.000,365.400 218.000 C 365.730 218.000,366.000 217.730,366.000 217.400 C 366.000 217.070,366.270 216.800,366.600 216.800 C 367.067 216.800,367.200 216.267,367.200 214.400 C 367.200 212.533,367.333 212.000,367.800 212.000 C 368.200 212.000,368.400 211.600,368.400 210.800 C 368.400 210.140,368.580 209.600,368.800 209.600 C 369.020 209.600,369.200 208.880,369.200 208.000 C 369.200 206.844,369.367 206.400,369.800 206.400 C 370.200 206.400,370.400 206.000,370.400 205.200 C 370.400 204.400,370.600 204.000,371.000 204.000 C 371.444 204.000,371.600 203.533,371.600 202.200 C 371.600 200.867,371.756 200.400,372.200 200.400 C 372.530 200.400,372.800 200.130,372.800 199.800 C 372.800 199.470,373.070 199.200,373.400 199.200 C 373.876 199.200,374.000 198.622,374.000 196.400 C 374.000 194.178,374.124 193.600,374.600 193.600 C 375.000 193.600,375.200 193.200,375.200 192.400 C 375.200 191.600,375.400 191.200,375.800 191.200 C 376.259 191.200,376.400 190.694,376.400 189.043 C 376.400 187.494,376.569 186.821,377.000 186.655 C 377.330 186.529,377.600 185.969,377.600 185.413 C 377.600 184.779,377.825 184.400,378.200 184.400 C 378.667 184.400,378.800 183.867,378.800 182.000 C 378.800 180.667,378.978 179.600,379.200 179.600 C 379.420 179.600,379.600 179.060,379.600 178.400 C 379.600 177.600,379.800 177.200,380.200 177.200 C 380.676 177.200,380.800 176.622,380.800 174.400 C 380.800 172.178,380.924 171.600,381.400 171.600 C 381.844 171.600,382.000 171.133,382.000 169.800 C 382.000 168.467,382.156 168.000,382.600 168.000 C 383.086 168.000,383.200 167.356,383.200 164.600 C 383.200 161.844,383.314 161.200,383.800 161.200 C 384.200 161.200,384.400 160.800,384.400 160.000 C 384.400 159.200,384.600 158.800,385.000 158.800 C 385.486 158.800,385.600 158.156,385.600 155.400 C 385.600 152.644,385.714 152.000,386.200 152.000 C 386.644 152.000,386.800 151.533,386.800 150.200 C 386.800 148.867,386.956 148.400,387.400 148.400 C 387.831 148.400,388.000 147.960,388.000 146.843 C 388.000 145.828,388.209 145.205,388.600 145.055 C 389.078 144.872,389.200 144.010,389.200 140.813 C 389.200 138.404,389.360 136.800,389.600 136.800 C 389.820 136.800,390.000 136.080,390.000 135.200 C 390.000 134.044,390.167 133.600,390.600 133.600 C 391.095 133.600,391.200 132.867,391.200 129.400 C 391.200 125.933,391.305 125.200,391.800 125.200 C 392.276 125.200,392.400 124.622,392.400 122.400 C 392.400 120.178,392.524 119.600,393.000 119.600 C 393.508 119.600,393.600 118.622,393.600 113.200 C 393.600 107.778,393.692 106.800,394.200 106.800 C 394.633 106.800,394.800 106.356,394.800 105.200 C 394.800 104.044,394.967 103.600,395.400 103.600 C 395.927 103.600,396.000 100.311,396.000 76.400 L 396.000 49.200 394.800 49.200 C 394.000 49.200,393.600 49.000,393.600 48.600 C 393.600 48.083,392.244 48.000,383.800 48.000 C 375.356 48.000,374.000 47.917,374.000 47.400 C 374.000 46.933,373.467 46.800,371.600 46.800 C 369.733 46.800,369.200 46.667,369.200 46.200 C 369.200 45.724,368.622 45.600,366.400 45.600 C 364.178 45.600,363.600 45.476,363.600 45.000 C 363.600 44.490,362.556 44.400,356.600 44.400 C 350.644 44.400,349.600 44.310,349.600 43.800 C 349.600 43.341,349.094 43.200,347.443 43.200 C 345.894 43.200,345.221 43.031,345.055 42.600 C 344.870 42.117,343.966 42.000,340.413 42.000 C 337.738 42.000,336.000 41.842,336.000 41.600 C 336.000 41.380,335.460 41.200,334.800 41.200 C 334.000 41.200,333.600 41.000,333.600 40.600 C 333.600 40.120,333.000 40.000,330.600 40.000 C 328.200 40.000,327.600 39.880,327.600 39.400 C 327.600 38.939,327.089 38.800,325.400 38.800 C 323.711 38.800,323.200 38.661,323.200 38.200 C 323.200 37.756,322.733 37.600,321.400 37.600 C 320.067 37.600,319.600 37.444,319.600 37.000 C 319.600 36.507,318.889 36.400,315.600 36.400 C 312.311 36.400,311.600 36.293,311.600 35.800 C 311.600 35.333,311.067 35.200,309.200 35.200 C 307.333 35.200,306.800 35.067,306.800 34.600 C 306.800 34.139,306.289 34.000,304.600 34.000 C 302.911 34.000,302.400 33.861,302.400 33.400 C 302.400 32.956,301.933 32.800,300.600 32.800 C 299.267 32.800,298.800 32.644,298.800 32.200 C 298.800 31.739,298.289 31.600,296.600 31.600 C 295.390 31.600,294.400 31.420,294.400 31.200 C 294.400 30.978,293.333 30.800,292.000 30.800 C 290.133 30.800,289.600 30.667,289.600 30.200 C 289.600 29.800,289.200 29.600,288.400 29.600 C 287.600 29.600,287.200 29.400,287.200 29.000 C 287.200 28.539,286.689 28.400,285.000 28.400 C 283.311 28.400,282.800 28.261,282.800 27.800 C 282.800 27.400,282.400 27.200,281.600 27.200 C 280.800 27.200,280.400 27.000,280.400 26.600 C 280.400 26.114,279.756 26.000,277.000 26.000 C 274.244 26.000,273.600 25.886,273.600 25.400 C 273.600 25.070,273.330 24.800,273.000 24.800 C 272.670 24.800,272.400 24.530,272.400 24.200 C 272.400 23.733,271.867 23.600,270.000 23.600 C 268.133 23.600,267.600 23.467,267.600 23.000 C 267.600 22.546,267.109 22.400,265.581 22.400 C 263.941 22.400,263.388 22.212,262.635 21.400 C 261.858 20.561,261.345 20.400,259.454 20.400 C 257.717 20.400,257.200 20.262,257.200 19.800 C 257.200 19.356,256.733 19.200,255.400 19.200 C 254.067 19.200,253.600 19.044,253.600 18.600 C 253.600 18.124,253.022 18.000,250.800 18.000 C 248.578 18.000,248.000 17.876,248.000 17.400 C 248.000 17.070,247.730 16.800,247.400 16.800 C 247.070 16.800,246.800 16.530,246.800 16.200 C 246.800 15.756,246.333 15.600,245.000 15.600 C 243.667 15.600,243.200 15.444,243.200 15.000 C 243.200 14.539,242.689 14.400,241.000 14.400 C 239.311 14.400,238.800 14.261,238.800 13.800 C 238.800 13.470,238.530 13.200,238.200 13.200 C 237.870 13.200,237.600 12.930,237.600 12.600 C 237.600 12.156,237.133 12.000,235.800 12.000 C 234.467 12.000,234.000 11.844,234.000 11.400 C 234.000 10.967,233.556 10.800,232.400 10.800 C 231.520 10.800,230.800 10.620,230.800 10.400 C 230.800 10.180,230.260 10.000,229.600 10.000 C 228.800 10.000,228.400 9.800,228.400 9.400 C 228.400 8.956,227.933 8.800,226.600 8.800 C 225.267 8.800,224.800 8.644,224.800 8.200 C 224.800 7.800,224.400 7.600,223.600 7.600 C 222.800 7.600,222.400 7.400,222.400 7.000 C 222.400 6.539,221.889 6.400,220.200 6.400 C 218.511 6.400,218.000 6.261,218.000 5.800 C 218.000 5.470,217.730 5.200,217.400 5.200 C 217.070 5.200,216.800 4.930,216.800 4.600 C 216.800 4.156,216.333 4.000,215.000 4.000 C 213.667 4.000,213.200 3.844,213.200 3.400 C 213.200 3.070,212.930 2.800,212.600 2.800 C 212.270 2.800,212.000 2.530,212.000 2.200 C 212.000 1.870,211.730 1.600,211.400 1.600 C 211.070 1.600,210.800 1.357,210.800 1.059 C 210.800 0.186,196.069 -0.402,191.476 0.289 M197.501 95.300 L 197.400 188.200 112.100 188.301 C 28.050 188.400,26.800 188.391,26.800 187.629 C 26.800 187.205,26.530 186.587,26.200 186.257 C 25.870 185.927,25.600 185.304,25.600 184.871 C 25.600 184.439,25.330 183.982,25.000 183.855 C 24.629 183.713,24.400 183.105,24.400 182.262 C 24.400 181.512,24.130 180.674,23.800 180.400 C 23.421 180.085,23.200 179.203,23.200 178.000 C 23.200 176.797,22.979 175.915,22.600 175.600 C 22.270 175.326,22.000 174.488,22.000 173.738 C 22.000 172.895,21.771 172.287,21.400 172.145 C 20.938 171.967,20.800 171.200,20.800 168.806 C 20.800 166.531,20.639 165.564,20.200 165.200 C 19.761 164.836,19.600 163.869,19.600 161.594 C 19.600 159.200,19.462 158.433,19.000 158.255 C 18.604 158.103,18.400 157.477,18.400 156.413 C 18.400 155.526,18.220 154.800,18.000 154.800 C 17.780 154.800,17.600 154.204,17.600 153.475 C 17.600 152.525,17.261 151.824,16.400 151.000 C 15.401 150.043,15.200 149.537,15.200 147.974 C 15.200 146.794,14.977 145.913,14.600 145.600 C 14.183 145.254,14.000 144.335,14.000 142.594 C 14.000 140.733,13.845 140.026,13.400 139.855 C 12.908 139.667,12.800 138.662,12.800 134.279 L 12.800 128.933 11.611 127.767 C 10.637 126.811,10.420 126.265,10.411 124.749 C 10.404 123.603,10.171 122.708,9.800 122.400 C 9.003 121.738,9.003 118.662,9.800 118.000 C 10.670 117.278,10.670 110.078,9.800 109.745 C 9.355 109.574,9.200 108.867,9.200 107.006 C 9.200 105.265,9.017 104.346,8.600 104.000 C 7.826 103.358,7.826 101.442,8.600 100.800 C 8.930 100.526,9.200 99.951,9.200 99.522 C 9.200 99.094,8.930 98.473,8.600 98.143 C 8.115 97.658,8.000 96.279,8.000 90.971 C 8.000 86.857,7.850 84.400,7.600 84.400 C 7.340 84.400,7.200 78.933,7.200 68.800 L 7.200 53.200 11.551 53.200 C 14.931 53.200,16.013 53.066,16.400 52.600 C 16.797 52.121,17.982 52.000,22.262 52.000 C 26.660 52.000,27.667 51.892,27.855 51.400 C 28.046 50.903,29.134 50.800,34.200 50.800 C 39.266 50.800,40.354 50.697,40.545 50.200 C 40.723 49.736,41.498 49.600,43.964 49.600 C 45.718 49.600,47.264 49.420,47.400 49.200 C 47.536 48.980,48.515 48.800,49.575 48.800 C 50.800 48.800,51.683 48.581,52.000 48.200 C 52.359 47.768,53.308 47.600,55.400 47.600 C 57.492 47.600,58.441 47.432,58.800 47.000 C 59.166 46.559,60.137 46.400,62.462 46.400 C 64.905 46.400,65.678 46.263,65.855 45.800 C 66.015 45.383,66.667 45.200,67.994 45.200 C 69.202 45.200,70.085 44.980,70.400 44.600 C 70.775 44.149,71.802 43.997,74.549 43.989 C 78.063 43.978,78.244 43.933,79.367 42.789 C 80.510 41.624,80.616 41.600,84.618 41.600 C 87.760 41.600,88.817 41.462,89.200 41.000 C 89.474 40.670,90.287 40.400,91.006 40.400 C 91.800 40.400,92.405 40.164,92.545 39.800 C 92.697 39.404,93.323 39.200,94.387 39.200 C 95.274 39.200,96.000 39.020,96.000 38.800 C 96.000 38.575,97.117 38.400,98.551 38.400 C 100.331 38.400,101.253 38.219,101.600 37.800 C 101.874 37.470,102.684 37.200,103.400 37.200 C 104.116 37.200,104.926 36.930,105.200 36.600 C 105.546 36.183,106.465 36.000,108.206 36.000 C 110.067 36.000,110.774 35.845,110.945 35.400 C 111.071 35.070,111.519 34.800,111.938 34.800 C 112.358 34.800,112.926 34.530,113.200 34.200 C 113.474 33.870,114.284 33.600,115.000 33.600 C 115.716 33.600,116.526 33.330,116.800 33.000 C 117.148 32.581,118.071 32.400,119.862 32.400 C 121.771 32.400,122.484 32.247,122.655 31.800 C 122.815 31.383,123.467 31.200,124.794 31.200 C 126.002 31.200,126.885 30.980,127.200 30.600 C 127.474 30.270,128.014 30.000,128.400 30.000 C 128.786 30.000,129.326 29.730,129.600 29.400 C 129.874 29.070,130.695 28.800,131.425 28.800 C 132.155 28.800,132.864 28.620,133.000 28.400 C 133.136 28.180,134.412 28.000,135.836 28.000 C 137.768 28.000,138.484 27.848,138.655 27.400 C 138.782 27.070,139.213 26.800,139.614 26.800 C 140.015 26.800,140.613 26.530,140.943 26.200 C 141.273 25.870,142.074 25.600,142.722 25.600 C 143.371 25.600,144.126 25.330,144.400 25.000 C 144.674 24.670,145.484 24.400,146.200 24.400 C 146.916 24.400,147.726 24.130,148.000 23.800 C 148.274 23.470,149.084 23.200,149.800 23.200 C 150.516 23.200,151.326 22.930,151.600 22.600 C 151.874 22.270,152.687 22.000,153.406 22.000 C 154.200 22.000,154.805 21.764,154.945 21.400 C 155.071 21.070,155.611 20.800,156.145 20.800 C 156.678 20.800,157.218 20.530,157.345 20.200 C 157.471 19.870,157.919 19.600,158.338 19.600 C 158.758 19.600,159.326 19.330,159.600 19.000 C 159.917 18.619,160.800 18.400,162.025 18.400 C 163.085 18.400,164.064 18.220,164.200 18.000 C 164.336 17.780,164.775 17.600,165.175 17.600 C 165.575 17.600,166.126 17.330,166.400 17.000 C 166.674 16.670,167.512 16.400,168.262 16.400 C 169.105 16.400,169.713 16.171,169.855 15.800 C 169.982 15.470,170.522 15.200,171.055 15.200 C 171.589 15.200,172.129 14.930,172.255 14.600 C 172.415 14.183,173.067 14.000,174.394 14.000 C 175.602 14.000,176.485 13.780,176.800 13.400 C 177.074 13.070,177.602 12.800,177.974 12.800 C 178.346 12.800,179.168 12.260,179.800 11.600 C 180.607 10.758,181.330 10.400,182.226 10.400 C 182.928 10.400,183.726 10.130,184.000 9.800 C 184.274 9.470,185.087 9.200,185.806 9.200 C 186.600 9.200,187.205 8.964,187.345 8.600 C 187.497 8.204,188.123 8.000,189.187 8.000 C 190.074 8.000,190.800 7.820,190.800 7.600 C 190.800 7.380,191.138 7.200,191.551 7.200 C 191.964 7.200,192.526 6.930,192.800 6.600 C 193.074 6.270,193.600 6.000,193.969 6.000 C 194.797 6.000,195.600 5.238,195.600 4.451 C 195.600 3.798,196.733 2.400,197.263 2.400 C 197.449 2.400,197.556 44.205,197.501 95.300 M202.400 5.400 C 202.674 5.730,203.484 6.000,204.200 6.000 C 204.916 6.000,205.726 6.270,206.000 6.600 C 206.274 6.930,206.825 7.200,207.225 7.200 C 207.625 7.200,208.064 7.380,208.200 7.600 C 208.336 7.820,209.072 8.000,209.836 8.000 C 210.702 8.000,211.312 8.226,211.455 8.600 C 211.582 8.930,212.122 9.200,212.655 9.200 C 213.189 9.200,213.729 9.470,213.855 9.800 C 213.982 10.130,214.497 10.400,215.000 10.400 C 215.503 10.400,216.018 10.670,216.145 11.000 C 216.287 11.371,216.895 11.600,217.738 11.600 C 218.488 11.600,219.326 11.870,219.600 12.200 C 219.874 12.530,220.414 12.800,220.800 12.800 C 221.186 12.800,221.726 13.070,222.000 13.400 C 222.315 13.779,223.197 14.000,224.400 14.000 C 225.603 14.000,226.485 14.221,226.800 14.600 C 227.074 14.930,227.559 15.200,227.878 15.200 C 228.196 15.200,228.727 15.470,229.057 15.800 C 229.387 16.130,229.985 16.400,230.386 16.400 C 230.787 16.400,231.218 16.670,231.345 17.000 C 231.497 17.396,232.123 17.600,233.187 17.600 C 234.074 17.600,234.800 17.780,234.800 18.000 C 234.800 18.220,235.408 18.400,236.151 18.400 C 236.894 18.400,237.726 18.670,238.000 19.000 C 238.274 19.330,239.084 19.600,239.800 19.600 C 240.516 19.600,241.326 19.870,241.600 20.200 C 241.874 20.530,242.442 20.800,242.862 20.800 C 243.281 20.800,243.729 21.070,243.855 21.400 C 244.020 21.829,244.690 22.000,246.200 22.000 C 247.710 22.000,248.380 22.171,248.545 22.600 C 248.695 22.992,249.318 23.200,250.345 23.200 C 251.371 23.200,251.994 23.408,252.145 23.800 C 252.287 24.171,252.895 24.400,253.738 24.400 C 254.488 24.400,255.326 24.670,255.600 25.000 C 255.874 25.330,256.414 25.600,256.800 25.600 C 257.186 25.600,257.726 25.870,258.000 26.200 C 258.274 26.530,259.112 26.800,259.862 26.800 C 260.705 26.800,261.313 27.029,261.455 27.400 C 261.605 27.791,262.228 28.000,263.243 28.000 C 264.099 28.000,264.800 28.180,264.800 28.400 C 264.800 28.620,265.678 28.800,266.751 28.800 C 267.997 28.800,268.882 29.017,269.200 29.400 C 269.474 29.730,270.284 30.000,271.000 30.000 C 271.716 30.000,272.526 30.270,272.800 30.600 C 273.074 30.930,273.912 31.200,274.662 31.200 C 275.505 31.200,276.113 31.429,276.255 31.800 C 276.426 32.245,277.133 32.400,278.994 32.400 C 280.735 32.400,281.654 32.583,282.000 33.000 C 282.274 33.330,283.084 33.600,283.800 33.600 C 284.516 33.600,285.326 33.870,285.600 34.200 C 285.874 34.530,286.414 34.800,286.800 34.800 C 287.186 34.800,287.726 35.070,288.000 35.400 C 288.315 35.780,289.198 36.000,290.406 36.000 C 291.733 36.000,292.385 36.183,292.545 36.600 C 292.706 37.021,293.362 37.200,294.738 37.200 C 295.996 37.200,296.881 37.416,297.200 37.800 C 297.546 38.217,298.467 38.400,300.225 38.400 C 301.615 38.400,302.864 38.580,303.000 38.800 C 303.136 39.020,303.602 39.200,304.036 39.200 C 304.470 39.200,304.929 39.470,305.055 39.800 C 305.220 40.229,305.890 40.400,307.400 40.400 C 308.910 40.400,309.580 40.571,309.745 41.000 C 309.927 41.475,310.769 41.600,313.800 41.600 C 316.831 41.600,317.673 41.725,317.855 42.200 C 318.004 42.587,318.623 42.800,319.600 42.800 C 320.577 42.800,321.196 43.013,321.345 43.400 C 321.522 43.863,322.295 44.000,324.738 44.000 C 327.063 44.000,328.034 44.159,328.400 44.600 C 328.674 44.930,329.484 45.200,330.200 45.200 C 330.916 45.200,331.726 45.470,332.000 45.800 C 332.359 46.232,333.308 46.400,335.400 46.400 C 337.492 46.400,338.441 46.568,338.800 47.000 C 339.166 47.441,340.137 47.600,342.462 47.600 C 344.905 47.600,345.678 47.737,345.855 48.200 C 346.021 48.631,346.694 48.800,348.243 48.800 C 349.429 48.800,350.400 48.980,350.400 49.200 C 350.400 49.444,352.257 49.600,355.171 49.600 C 358.879 49.600,360.077 49.734,360.543 50.200 C 361.001 50.658,362.147 50.800,365.384 50.800 C 368.785 50.800,369.671 50.919,369.855 51.400 C 370.045 51.893,371.070 52.000,375.623 52.000 C 380.074 52.000,381.225 52.115,381.489 52.587 C 381.744 53.044,382.923 53.199,386.809 53.287 L 391.800 53.400 391.905 68.711 C 391.996 82.070,391.932 84.051,391.405 84.254 C 390.893 84.450,390.800 85.706,390.800 92.400 C 390.800 99.066,390.705 100.351,390.200 100.545 C 389.725 100.727,389.600 101.569,389.600 104.600 C 389.600 107.631,389.475 108.473,389.000 108.655 C 388.526 108.837,388.400 109.667,388.400 112.594 C 388.400 115.402,388.254 116.423,387.800 116.800 C 387.383 117.146,387.200 118.065,387.200 119.806 C 387.200 121.667,387.045 122.374,386.600 122.545 C 386.117 122.730,386.000 123.629,386.000 127.138 C 386.000 130.529,385.866 131.613,385.400 132.000 C 385.070 132.274,384.800 133.106,384.800 133.849 C 384.800 134.592,384.620 135.200,384.400 135.200 C 384.162 135.200,384.000 136.717,384.000 138.951 C 384.000 141.797,383.855 142.822,383.400 143.200 C 383.016 143.519,382.800 144.404,382.800 145.662 C 382.800 147.038,382.621 147.694,382.200 147.855 C 381.738 148.032,381.600 148.797,381.600 151.168 C 381.600 154.071,381.530 154.317,380.400 155.400 C 379.390 156.368,379.200 156.857,379.200 158.487 C 379.200 159.841,379.019 160.495,378.600 160.655 C 378.138 160.833,378.000 161.600,378.000 163.994 C 378.000 166.269,377.839 167.236,377.400 167.600 C 377.070 167.874,376.800 168.414,376.800 168.800 C 376.800 169.186,376.530 169.726,376.200 170.000 C 375.783 170.346,375.600 171.265,375.600 173.006 C 375.600 174.867,375.445 175.574,375.000 175.745 C 374.670 175.871,374.400 176.431,374.400 176.987 C 374.400 177.544,374.220 178.000,374.000 178.000 C 373.780 178.000,373.600 178.878,373.600 179.951 C 373.600 181.197,373.383 182.082,373.000 182.400 C 372.670 182.674,372.400 183.497,372.400 184.229 C 372.400 184.961,372.147 185.704,371.838 185.880 C 371.530 186.056,371.215 186.650,371.138 187.200 L 371.000 188.200 286.200 188.200 L 201.400 188.200 201.299 96.500 C 201.241 43.917,201.348 4.800,201.550 4.800 C 201.744 4.800,202.126 5.070,202.400 5.400 M368.720 194.635 C 368.801 195.740,368.639 196.436,368.220 196.784 C 367.879 197.066,367.600 197.825,367.600 198.468 C 367.600 199.202,367.228 199.983,366.600 200.565 C 366.050 201.075,365.600 201.764,365.600 202.097 C 365.600 202.430,365.330 202.926,365.000 203.200 C 364.621 203.515,364.400 204.397,364.400 205.600 C 364.400 206.803,364.179 207.685,363.800 208.000 C 363.470 208.274,363.200 208.814,363.200 209.200 C 363.200 209.586,362.930 210.126,362.600 210.400 C 362.270 210.674,362.000 211.512,362.000 212.262 C 362.000 213.105,361.771 213.713,361.400 213.855 C 361.070 213.982,360.800 214.497,360.800 215.000 C 360.800 215.503,360.530 216.018,360.200 216.145 C 359.808 216.295,359.600 216.918,359.600 217.945 C 359.600 218.971,359.392 219.594,359.000 219.745 C 358.670 219.871,358.400 220.319,358.400 220.738 C 358.400 221.158,358.130 221.726,357.800 222.000 C 357.470 222.274,357.200 222.825,357.200 223.225 C 357.200 223.625,357.020 224.064,356.800 224.200 C 356.580 224.336,356.400 224.775,356.400 225.175 C 356.400 225.575,356.130 226.126,355.800 226.400 C 355.470 226.674,355.200 227.512,355.200 228.262 C 355.200 229.105,354.971 229.713,354.600 229.855 C 354.270 229.982,354.000 230.480,354.000 230.962 C 354.000 231.444,353.469 232.278,352.817 232.819 C 352.158 233.366,351.626 234.204,351.617 234.713 C 351.608 235.214,351.330 235.729,351.000 235.855 C 350.571 236.020,350.400 236.691,350.400 238.216 C 350.400 240.243,350.346 240.353,349.300 240.473 C 348.353 240.582,348.183 240.801,348.079 242.050 C 348.003 242.958,347.592 243.844,346.979 244.420 C 346.335 245.024,346.000 245.779,346.000 246.621 C 346.000 247.325,345.730 248.126,345.400 248.400 C 345.070 248.674,344.800 249.199,344.800 249.568 C 344.800 249.936,344.268 250.679,343.617 251.219 C 342.958 251.766,342.426 252.604,342.417 253.113 C 342.408 253.614,342.130 254.129,341.800 254.255 C 341.429 254.398,341.200 255.006,341.200 255.850 C 341.200 256.944,340.844 257.554,339.400 258.938 C 338.405 259.892,337.600 261.032,337.600 261.489 C 337.600 261.943,337.330 262.418,337.000 262.545 C 336.670 262.671,336.400 263.130,336.400 263.564 C 336.400 263.998,336.220 264.464,336.000 264.600 C 335.780 264.736,335.600 265.163,335.600 265.549 C 335.600 265.935,335.060 266.768,334.400 267.400 C 333.740 268.032,333.200 268.854,333.200 269.226 C 333.200 269.598,332.930 270.126,332.600 270.400 C 332.270 270.674,332.000 271.466,332.000 272.160 C 332.000 273.490,330.870 274.819,329.400 275.216 C 328.960 275.335,328.541 275.841,328.469 276.341 C 328.397 276.840,328.082 277.347,327.769 277.467 C 327.456 277.587,327.200 278.116,327.200 278.643 C 327.200 279.169,327.023 279.600,326.808 279.600 C 326.592 279.600,326.294 280.095,326.145 280.700 C 325.997 281.305,325.482 282.170,325.001 282.623 C 324.519 283.075,324.004 283.930,323.855 284.523 C 323.706 285.115,323.408 285.600,323.192 285.600 C 322.977 285.600,322.800 285.924,322.800 286.320 C 322.800 286.716,322.584 287.256,322.320 287.520 C 322.056 287.784,321.516 288.000,321.120 288.000 C 320.627 288.000,320.400 288.302,320.400 288.957 C 320.400 289.484,320.130 290.018,319.800 290.145 C 319.470 290.271,319.200 290.752,319.200 291.213 C 319.200 291.674,318.660 292.506,318.000 293.061 C 317.340 293.617,316.800 294.359,316.800 294.710 C 316.800 295.587,315.216 297.200,314.354 297.200 C 313.829 297.200,313.617 297.579,313.524 298.684 C 313.423 299.891,313.213 300.212,312.400 300.400 C 311.584 300.589,311.377 300.908,311.275 302.138 C 311.204 302.983,310.897 303.741,310.575 303.865 C 310.259 303.986,309.995 304.471,309.989 304.943 C 309.982 305.450,309.002 306.767,307.589 308.167 C 306.275 309.468,305.200 310.797,305.200 311.118 C 305.200 311.440,304.210 312.670,303.000 313.852 C 301.790 315.033,300.800 316.323,300.800 316.718 C 300.800 317.114,300.268 317.879,299.617 318.419 C 298.966 318.958,298.426 319.793,298.417 320.273 C 298.404 320.924,298.119 321.179,297.300 321.273 C 296.443 321.372,296.173 321.638,296.076 322.476 C 295.980 323.307,295.707 323.580,294.876 323.676 C 294.093 323.766,293.763 324.059,293.665 324.751 C 293.592 325.274,293.097 326.105,292.565 326.597 C 292.034 327.089,291.600 327.731,291.600 328.024 C 291.600 328.824,289.553 330.800,288.725 330.800 C 288.282 330.800,288.000 331.093,288.000 331.551 C 288.000 331.964,287.741 332.517,287.424 332.780 C 287.107 333.043,286.792 333.650,286.724 334.129 C 286.648 334.663,286.269 335.047,285.744 335.122 C 284.800 335.257,282.400 337.678,282.400 338.496 C 282.400 338.780,280.248 341.159,277.618 343.782 C 274.988 346.405,272.783 348.923,272.718 349.376 C 272.647 349.871,272.250 350.250,271.725 350.325 C 271.186 350.401,270.801 350.780,270.725 351.308 C 270.647 351.841,270.221 352.256,269.602 352.401 C 269.038 352.533,268.544 352.975,268.465 353.418 C 268.285 354.423,265.623 357.200,264.838 357.200 C 264.047 357.200,261.600 359.589,261.600 360.362 C 261.600 361.179,258.800 364.000,257.989 364.000 C 257.179 364.000,255.728 365.535,255.535 366.595 C 255.456 367.033,255.033 367.455,254.595 367.533 C 253.550 367.721,251.200 369.981,251.200 370.798 C 251.200 371.624,250.420 372.400,249.590 372.400 C 249.232 372.400,248.526 372.840,248.020 373.379 C 247.514 373.917,246.725 374.412,246.267 374.479 C 245.763 374.552,245.341 374.990,245.202 375.585 C 245.059 376.197,244.602 376.658,244.000 376.800 C 243.398 376.942,242.941 377.403,242.798 378.015 C 242.661 378.601,242.236 379.048,241.751 379.119 C 241.302 379.184,239.966 380.219,238.781 381.419 C 237.597 382.619,236.374 383.600,236.064 383.600 C 235.754 383.600,234.154 384.950,232.510 386.600 C 230.865 388.250,229.255 389.600,228.931 389.600 C 228.608 389.600,228.073 389.870,227.743 390.200 C 227.413 390.530,226.796 390.800,226.371 390.800 C 225.813 390.800,225.600 391.079,225.600 391.810 C 225.600 392.612,225.353 392.869,224.400 393.060 C 223.471 393.246,223.200 393.514,223.200 394.250 C 223.200 395.000,222.987 395.200,222.187 395.200 C 221.631 395.200,221.071 395.470,220.945 395.800 C 220.818 396.130,220.306 396.400,219.807 396.400 C 219.119 396.400,218.842 396.690,218.660 397.600 C 218.486 398.472,218.193 398.800,217.587 398.800 C 217.130 398.800,216.270 399.322,215.677 399.960 C 215.085 400.599,214.248 401.185,213.818 401.263 C 213.376 401.343,212.934 401.839,212.802 402.402 C 212.615 403.202,212.286 403.424,211.145 403.520 C 210.107 403.608,209.306 404.068,208.180 405.220 C 207.332 406.089,206.371 406.800,206.045 406.800 C 205.226 406.800,203.600 408.396,203.600 409.200 C 203.600 409.982,201.861 411.727,201.470 411.337 C 201.119 410.985,201.116 193.417,201.468 193.066 C 201.615 192.919,239.280 192.844,285.168 192.899 L 368.600 193.000 368.720 194.635 M197.600 302.200 C 197.600 362.150,197.458 411.200,197.285 411.200 C 197.112 411.200,194.907 409.130,192.385 406.601 C 188.543 402.747,187.603 402.002,186.581 402.001 C 185.687 402.000,184.946 401.574,183.800 400.400 C 182.941 399.520,181.959 398.795,181.619 398.788 C 181.278 398.782,179.920 397.702,178.600 396.389 C 177.280 395.076,175.885 394.001,175.500 394.001 C 175.093 394.000,174.800 393.699,174.800 393.280 C 174.800 392.369,174.044 391.600,173.149 391.600 C 172.769 391.600,172.104 391.150,171.671 390.600 C 171.239 390.050,170.546 389.600,170.132 389.600 C 169.717 389.600,168.919 389.077,168.357 388.437 C 167.796 387.797,166.901 387.212,166.368 387.137 C 165.652 387.036,165.367 386.714,165.273 385.900 C 165.184 385.126,164.919 384.800,164.378 384.800 C 163.955 384.800,162.540 383.720,161.232 382.400 C 159.924 381.080,158.568 380.000,158.218 380.000 C 157.868 380.000,156.623 379.010,155.451 377.800 C 154.169 376.476,152.978 375.600,152.460 375.600 C 151.852 375.600,151.600 375.353,151.600 374.756 C 151.600 373.626,150.018 372.015,148.900 372.007 C 148.255 372.002,148.000 371.762,148.000 371.160 C 148.000 370.231,145.592 367.600,144.740 367.599 C 143.920 367.599,137.600 361.308,137.600 360.492 C 137.600 359.701,136.279 358.400,135.477 358.400 C 134.751 358.400,132.103 355.561,131.933 354.600 C 131.849 354.122,131.417 353.747,130.859 353.667 C 129.792 353.516,124.810 348.514,124.804 347.589 C 124.799 346.890,123.434 345.601,122.695 345.598 C 121.894 345.595,119.200 342.906,119.200 342.109 C 119.200 341.277,117.791 339.907,116.602 339.582 C 116.163 339.463,115.741 339.037,115.664 338.635 C 115.586 338.234,114.550 336.933,113.362 335.744 C 112.173 334.555,111.200 333.310,111.200 332.976 C 111.200 332.643,110.390 331.583,109.400 330.621 C 108.410 329.659,107.600 328.507,107.600 328.062 C 107.600 327.477,107.296 327.218,106.500 327.127 C 105.706 327.035,105.364 326.745,105.270 326.084 C 105.199 325.580,103.894 323.934,102.370 322.425 C 100.847 320.917,99.600 319.428,99.600 319.116 C 99.600 318.805,99.060 318.032,98.400 317.400 C 97.740 316.768,97.200 315.955,97.200 315.595 C 97.200 314.778,95.667 313.328,94.600 313.136 C 94.152 313.055,93.747 312.620,93.679 312.146 C 93.612 311.680,93.117 310.886,92.579 310.380 C 92.040 309.874,91.600 309.166,91.600 308.805 C 91.600 308.445,91.060 307.632,90.400 307.000 C 89.740 306.368,89.200 305.566,89.200 305.219 C 89.200 304.872,88.401 303.814,87.424 302.867 C 86.448 301.921,85.593 300.761,85.524 300.290 C 85.447 299.758,85.021 299.345,84.400 299.201 C 83.611 299.017,83.372 298.680,83.268 297.597 C 83.184 296.721,82.715 295.823,81.968 295.109 C 81.326 294.495,80.800 293.704,80.800 293.350 C 80.800 292.996,80.080 292.008,79.200 291.154 C 78.320 290.300,77.600 289.260,77.600 288.843 C 77.600 288.427,77.330 287.982,77.000 287.855 C 76.670 287.729,76.392 287.214,76.383 286.713 C 76.374 286.204,75.842 285.366,75.183 284.819 C 74.532 284.279,74.000 283.548,74.000 283.194 C 74.000 282.839,73.460 282.032,72.800 281.400 C 72.140 280.768,71.600 279.955,71.600 279.595 C 71.600 279.234,71.150 278.517,70.600 278.000 C 69.938 277.378,69.600 276.629,69.600 275.781 C 69.600 274.777,69.212 274.145,67.800 272.843 C 66.810 271.930,66.000 270.822,66.000 270.379 C 66.000 269.937,65.730 269.471,65.400 269.345 C 65.070 269.218,64.800 268.706,64.800 268.206 C 64.800 267.707,64.530 267.074,64.200 266.800 C 63.870 266.526,63.592 266.009,63.583 265.651 C 63.574 265.293,63.034 264.558,62.383 264.019 C 61.731 263.478,61.200 262.644,61.200 262.162 C 61.200 261.680,60.930 261.182,60.600 261.055 C 60.270 260.929,60.000 260.440,60.000 259.970 C 60.000 259.500,59.550 258.761,59.000 258.329 C 58.301 257.779,58.000 257.152,58.000 256.246 C 58.000 255.328,57.650 254.614,56.800 253.800 C 55.953 252.988,55.600 252.271,55.600 251.361 C 55.600 250.419,55.276 249.799,54.400 249.061 C 53.476 248.284,53.200 247.720,53.200 246.613 C 53.200 245.704,52.979 245.090,52.600 244.945 C 52.270 244.818,52.000 244.303,52.000 243.800 C 52.000 243.297,51.730 242.782,51.400 242.655 C 51.070 242.529,50.800 242.051,50.800 241.593 C 50.800 241.136,50.350 240.345,49.800 239.835 C 49.250 239.325,48.800 238.636,48.800 238.303 C 48.800 237.970,48.530 237.474,48.200 237.200 C 47.870 236.926,47.600 236.386,47.600 236.000 C 47.600 235.614,47.330 235.074,47.000 234.800 C 46.670 234.526,46.400 233.986,46.400 233.600 C 46.400 233.214,46.130 232.674,45.800 232.400 C 45.470 232.126,45.200 231.586,45.200 231.200 C 45.200 230.814,44.930 230.274,44.600 230.000 C 44.270 229.726,44.000 229.158,44.000 228.738 C 44.000 228.319,43.730 227.871,43.400 227.745 C 42.978 227.583,42.795 226.905,42.783 225.457 C 42.768 223.676,42.607 223.268,41.583 222.419 C 40.932 221.879,40.400 221.105,40.400 220.700 C 40.400 220.294,39.950 219.545,39.400 219.035 C 38.618 218.310,38.400 217.715,38.400 216.303 C 38.400 215.187,38.171 214.308,37.800 214.000 C 37.470 213.726,37.200 212.916,37.200 212.200 C 37.200 211.484,36.930 210.674,36.600 210.400 C 36.270 210.126,36.000 209.601,36.000 209.232 C 36.000 208.864,35.468 208.121,34.817 207.581 C 33.793 206.732,33.632 206.324,33.617 204.543 C 33.605 203.095,33.422 202.417,33.000 202.255 C 32.670 202.129,32.400 201.589,32.400 201.055 C 32.400 200.522,32.130 199.982,31.800 199.855 C 31.470 199.729,31.200 199.281,31.200 198.862 C 31.200 198.442,30.930 197.874,30.600 197.600 C 29.995 197.098,29.744 193.989,30.267 193.467 C 30.413 193.320,68.123 193.200,114.067 193.200 L 197.600 193.200 197.600 302.200 " stroke="none" fill="#040404" fill-rule="evenodd"></path></g></svg>